<svg id="Layer_1" data-name="Layer 1" xmlns="http://www.w3.org/2000/svg" xmlns:xlink="http://www.w3.org/1999/xlink" viewBox="0 0 291.451 245.064"><defs><style>.cls-1{fill:none;}.cls-2{clip-path:url(#clip-path);}.cls-3{fill:#4b4b4d;}.cls-3,.cls-4,.cls-5,.cls-6,.cls-7,.cls-8{fill-rule:evenodd;}.cls-4,.cls-9{fill:#eaecef;}.cls-4,.cls-6,.cls-7,.cls-8{stroke:#4b4b4d;stroke-linejoin:round;stroke-width:1.417px;}.cls-10,.cls-5,.cls-6{fill:#d2d3d5;}.cls-11,.cls-7{fill:#9d9d9e;}.cls-8{fill:#5e5e5e;}.cls-10,.cls-11,.cls-9{stroke:#231f20;stroke-miterlimit:10;}.cls-12{fill:#fff;}</style><clipPath id="clip-path"><rect class="cls-1" width="290.972" height="245.064"/></clipPath></defs><g class="cls-2"><polygon class="cls-3" points="0 0 291.451 0 291.451 245.726 0 245.726 0 0 0 0"/><polygon class="cls-4" points="175.471 132.349 175.023 131.9 175.471 130.553 175.919 129.655 176.367 129.206 176.815 128.757 177.263 128.757 177.71 128.757 178.158 128.308 178.158 127.859 178.158 127.41 178.158 126.512 178.158 126.063 178.158 124.716 177.71 123.818 177.71 123.369 177.71 121.124 177.263 120.676 177.71 120.676 178.158 120.676 181.293 120.227 181.741 120.227 182.188 120.676 182.636 121.124 183.084 121.574 183.084 122.022 183.532 122.471 184.875 122.92 185.771 125.165 186.666 126.063 187.562 126.961 188.01 127.41 188.01 127.859 188.457 127.859 188.457 128.757 188.457 129.655 189.353 130.553 191.144 130.104 192.935 131.9 195.622 132.349 200.996 132.797 204.578 135.94 205.026 136.838 204.131 137.736 205.026 139.532 206.817 140.878 207.265 140.878 207.713 140.878 208.161 141.777 208.608 141.777 209.056 141.777 209.504 141.777 213.087 140.878 215.325 139.98 235.029 134.593 238.611 133.696 244.432 131.45 244.88 131.9 243.985 162.878 244.88 164.224 249.358 165.122 249.806 167.367 251.597 169.162 251.597 170.061 217.117 168.714 216.221 168.714 215.325 169.612 214.43 170.509 214.43 170.061 213.982 170.509 213.087 170.509 213.087 170.958 212.191 170.958 211.743 171.407 210.848 171.856 208.608 170.509 206.37 171.407 204.578 170.509 200.101 170.958 199.204 170.958 196.966 169.162 194.279 166.469 193.831 165.571 194.279 165.571 194.279 162.878 192.935 159.286 192.488 159.286 192.04 158.837 191.592 157.041 191.144 156.143 191.592 154.796 191.592 153.898 191.144 150.306 190.249 147.613 190.249 147.164 189.353 146.266 188.906 145.817 187.114 144.47 186.666 143.572 185.771 143.572 185.323 143.572 184.875 142.674 182.636 140.878 182.188 139.083 181.741 138.634 181.741 138.185 182.188 137.736 183.084 137.736 183.084 137.287 182.188 136.389 181.293 135.94 180.397 135.491 179.501 135.491 178.606 135.042 177.71 134.593 176.367 134.144 175.471 133.696 175.471 133.247 175.471 132.349 175.471 132.349"/><polygon class="cls-4" points="169.202 116.635 168.754 116.186 168.306 115.288 167.411 113.043 167.411 112.594 168.754 113.043 168.754 113.492 169.202 113.941 170.098 113.941 172.785 111.696 173.68 110.349 173.232 109.901 173.232 109.003 172.785 108.105 173.232 107.656 173.68 108.105 175.471 108.554 176.367 108.554 177.263 107.656 177.71 107.656 179.054 108.105 179.501 107.656 180.397 106.758 181.741 104.962 182.636 104.064 182.636 103.615 182.188 102.718 183.98 102.268 189.353 103.615 191.144 105.86 192.935 105.86 194.727 105.86 200.548 102.718 201.444 103.166 203.235 103.166 207.713 102.268 212.639 104.962 215.773 104.962 217.565 104.064 218.012 103.615 218.012 102.718 220.251 104.513 220.699 106.758 222.491 108.105 225.625 108.554 229.207 107.656 232.789 105.411 234.133 104.064 234.581 101.371 235.029 100.024 236.372 100.024 238.163 100.921 239.059 100.024 241.298 99.575 243.537 100.473 243.985 102.718 243.089 104.962 243.089 106.309 243.985 107.207 244.88 108.105 244.432 109.003 243.985 109.452 243.089 110.349 243.537 111.248 243.089 113.941 243.537 113.941 243.985 115.737 244.432 117.084 244.432 117.982 244.88 120.227 243.985 122.022 243.537 124.267 243.089 126.512 243.985 126.961 244.432 127.41 245.328 127.41 246.671 128.308 246.671 128.757 246.224 129.206 245.328 130.104 245.328 131.45 244.88 131.9 244.432 131.45 238.611 133.696 235.029 134.593 215.325 139.98 213.087 140.878 209.504 141.777 209.056 141.777 208.608 141.777 208.161 141.777 207.713 140.878 207.265 140.878 206.817 140.878 205.026 139.532 204.131 137.736 205.026 136.838 204.578 135.94 200.996 132.797 195.622 132.349 192.935 131.9 191.144 130.104 189.353 130.553 188.457 129.655 188.457 128.757 188.457 127.859 188.01 127.859 188.01 127.41 187.562 126.961 186.666 126.063 185.771 125.165 184.875 122.92 183.532 122.471 183.084 122.022 183.084 121.574 182.636 121.124 182.188 120.676 181.741 120.227 181.293 120.227 178.158 120.676 177.71 120.676 177.263 120.676 176.367 119.777 175.471 119.329 173.68 119.329 173.232 119.777 172.785 119.777 171.889 119.777 170.994 119.329 170.546 119.329 170.546 118.88 170.546 117.982 170.546 117.533 170.098 117.084 169.65 117.084 169.202 116.635 169.202 116.635"/><polygon class="cls-4" points="162.485 127.859 161.142 128.757 160.247 128.757 158.455 128.308 157.111 127.859 156.216 126.961 155.32 125.165 153.081 124.267 151.738 122.471 149.499 121.124 148.156 119.777 146.812 118.88 145.021 118.88 144.573 118.88 143.678 119.329 142.782 120.227 140.543 118.88 140.095 117.084 139.647 116.186 138.304 115.288 137.409 114.839 135.617 113.043 135.169 111.248 134.721 110.349 132.483 108.105 129.348 105.411 127.109 104.513 122.183 103.615 120.84 104.064 119.049 104.962 118.153 105.86 118.153 106.758 118.601 107.207 118.601 107.656 119.049 108.105 114.571 107.656 115.019 107.207 115.019 106.758 115.467 106.758 117.705 102.268 120.84 94.187 121.736 91.493 121.736 89.698 121.736 88.8 121.736 87.453 120.392 86.106 120.392 84.759 120.392 84.31 118.601 80.719 118.153 80.27 118.153 79.82 119.049 80.27 120.392 79.82 120.84 78.923 119.944 76.678 119.049 76.229 118.601 74.882 118.153 74.433 117.705 73.536 119.049 72.189 122.183 71.739 122.631 72.189 123.079 71.739 123.527 72.189 123.527 71.739 123.974 71.739 123.527 71.739 123.527 72.189 123.974 72.189 123.974 71.739 124.422 71.739 124.87 72.189 125.318 71.739 125.766 71.291 126.662 71.291 136.065 80.27 140.543 84.31 142.334 84.31 143.678 85.657 144.126 85.657 145.021 86.106 145.469 86.106 145.469 86.555 145.916 86.555 146.364 86.555 147.26 86.555 147.26 87.004 147.708 87.004 148.604 87.902 149.051 87.902 149.499 87.902 149.947 87.902 150.395 87.902 152.634 87.902 153.081 87.453 153.529 87.004 154.425 87.004 156.216 87.902 156.664 90.147 158.007 90.595 160.694 93.738 161.59 95.983 162.485 96.432 162.485 97.779 162.933 98.677 162.933 100.473 162.037 102.268 162.037 103.166 161.59 104.962 161.59 106.309 161.59 106.758 162.485 107.656 162.933 107.656 163.381 108.105 164.724 108.554 165.172 109.003 165.62 109.901 165.62 110.349 165.172 111.248 164.724 111.248 164.276 110.798 163.828 110.798 163.381 111.248 162.933 111.696 162.037 112.594 162.037 113.492 162.037 113.941 162.037 114.39 162.933 114.839 162.933 115.288 162.037 115.737 161.142 115.737 160.694 115.737 160.694 116.635 160.694 117.084 161.59 117.533 162.037 117.533 162.933 117.982 163.381 118.88 163.381 119.777 163.828 120.227 164.724 120.676 165.62 120.676 166.068 122.022 166.068 122.471 165.62 122.92 165.172 123.369 164.276 123.818 163.381 122.92 162.933 122.92 162.485 122.92 162.037 123.369 162.037 124.267 162.485 124.716 162.485 126.063 162.485 127.859 162.485 127.859 162.485 127.859"/><polygon class="cls-5" points="167.859 125.614 166.516 125.614 165.62 125.165 165.62 124.716 166.068 123.818 166.963 123.369 167.859 123.369 167.859 125.614 167.859 125.614"/><polygon class="cls-4" points="181.741 91.493 180.397 91.493 170.546 91.493 170.098 91.493 173.232 91.045 174.576 85.208 174.128 81.167 172.785 80.719 172.337 79.82 171.889 78.025 170.994 76.229 171.441 73.984 170.098 71.739 169.202 69.495 166.516 66.801 164.276 59.169 161.142 55.128 159.798 51.536 158.007 48.843 153.081 44.802 151.29 41.66 151.738 38.068 152.634 32.68 166.963 29.088 171.441 21.906 172.785 21.457 171.889 20.11 173.232 17.865 175.023 18.314 175.471 16.518 174.576 14.722 172.785 12.028 173.68 11.131 176.367 13.375 181.741 14.273 185.323 19.661 186.666 25.048 188.01 27.293 189.353 30.884 190.249 32.68 191.144 34.476 192.488 35.374 193.383 36.272 193.383 36.721 192.935 39.415 194.279 38.966 195.175 40.762 196.07 43.904 197.413 50.19 198.309 51.536 197.861 54.23 196.07 59.169 196.07 60.964 196.518 62.76 199.204 66.352 199.653 67.699 200.548 70.842 192.935 73.984 188.906 77.127 188.457 81.167 187.562 88.8 187.114 91.942 184.875 91.942 181.741 91.493 181.741 91.493"/><polygon class="cls-6" points="169.65 142.225 169.65 141.777 162.485 141.777 159.798 141.777 159.798 141.327 159.798 139.98 159.351 137.736 159.351 136.838 159.351 135.94 159.351 134.593 158.903 133.247 159.351 133.247 159.798 132.797 160.247 132.797 161.142 132.797 161.59 132.349 162.485 130.104 162.933 130.553 163.828 131.002 165.62 130.553 166.963 130.104 168.754 130.104 169.65 131.002 170.546 132.797 170.994 136.838 171.441 139.083 171.889 139.532 171.889 139.083 172.337 139.083 172.785 139.532 172.785 139.98 172.785 140.43 172.337 141.327 171.889 140.878 170.098 141.777 169.65 141.777 169.65 142.225 169.65 142.225"/><polygon class="cls-5" points="171.441 128.757 171.441 128.308 172.337 127.859 172.785 129.206 173.232 130.104 172.785 131.002 171.889 130.553 171.889 129.655 171.441 128.757 171.441 128.757"/><polygon class="cls-7" points="189.801 190.713 189.353 198.345 181.293 198.345 181.293 201.038 174.576 201.038 175.023 205.528 176.815 209.569 176.367 210.467 175.471 209.12 174.576 209.12 173.68 209.12 173.232 209.12 172.337 209.12 172.337 208.671 172.785 207.773 172.337 206.875 171.889 205.977 170.546 204.63 170.546 203.732 170.098 202.834 168.754 201.937 167.859 201.487 167.411 201.038 166.516 200.14 166.516 197.447 166.516 196.549 166.068 195.651 165.62 194.753 165.62 193.855 166.516 192.06 167.411 183.978 167.859 181.285 166.963 179.489 165.62 177.693 164.276 172.754 163.828 169.612 163.381 167.816 163.381 167.367 162.485 166.02 162.037 165.571 161.59 165.122 161.59 165.571 160.694 165.571 160.694 166.02 159.798 166.02 159.351 165.571 158.007 162.878 158.007 162.428 157.559 161.081 158.007 160.184 158.455 159.286 158.007 156.592 158.007 155.245 158.007 154.796 159.351 154.347 159.351 153.898 159.798 152.552 160.247 149.858 160.247 149.409 160.247 148.96 160.247 144.021 159.798 141.777 162.485 141.777 169.65 141.777 169.65 142.225 169.65 142.674 170.098 145.368 170.994 147.164 170.994 148.511 170.098 148.96 170.098 149.858 171.889 151.205 172.337 152.552 172.785 152.552 172.337 153 171.889 153 171.441 152.552 170.994 152.552 170.546 153.449 170.546 153.898 172.337 155.245 173.232 155.245 175.919 155.694 176.367 155.694 176.367 156.143 175.919 156.143 176.815 157.49 177.71 157.49 178.606 157.49 179.054 157.49 180.845 157.49 181.741 158.388 181.741 158.837 182.188 158.837 182.636 159.286 182.636 159.735 183.084 160.184 183.98 161.081 184.875 161.531 186.666 161.979 186.666 163.775 188.906 165.571 190.249 166.02 190.697 166.02 191.144 166.02 191.592 165.571 192.04 165.571 192.488 166.02 192.488 166.469 193.831 165.571 194.279 166.469 196.966 169.162 195.622 170.061 193.831 170.061 192.935 170.509 192.935 171.407 192.935 171.856 192.488 171.407 192.488 171.856 191.144 170.958 189.353 171.407 186.666 174.55 186.666 179.04 185.771 180.835 185.771 181.285 185.323 181.734 185.771 182.182 185.771 182.631 186.218 183.081 186.218 183.529 186.666 183.978 186.666 184.427 187.114 184.876 187.562 185.774 187.114 186.223 186.666 186.672 186.666 187.121 187.114 187.57 187.562 187.57 188.457 187.57 188.906 188.468 188.906 188.917 188.457 189.365 188.906 189.815 189.353 189.815 189.801 190.713 189.801 190.713"/><polygon class="cls-7" points="203.235 205.977 201.444 204.63 200.996 204.181 200.548 203.732 200.548 202.834 200.101 201.487 199.204 200.59 198.757 199.691 198.309 199.243 196.966 198.794 196.518 198.345 196.07 197.896 194.727 196.998 193.831 196.1 193.383 194.753 192.488 193.855 192.04 193.406 191.592 193.406 191.144 192.957 191.144 192.509 190.697 192.509 190.249 191.61 190.249 191.162 189.801 190.713 189.353 189.815 188.906 189.815 188.457 189.365 188.906 188.917 188.906 188.468 188.457 187.57 187.562 187.57 187.114 187.57 186.666 187.121 186.666 186.672 187.114 186.223 187.562 185.774 187.114 184.876 186.666 184.427 186.666 183.978 186.218 183.529 186.218 183.081 185.771 182.631 185.771 182.182 185.323 181.734 185.771 181.285 185.771 180.835 186.666 179.04 186.666 174.55 189.353 171.407 191.144 170.958 192.488 171.856 192.488 171.407 192.935 171.856 192.935 171.407 192.935 170.509 193.831 170.061 195.622 170.061 196.966 169.162 199.204 170.958 200.101 170.958 204.578 170.509 206.37 171.407 208.608 170.509 210.848 171.856 211.743 171.407 212.191 170.958 213.087 170.958 213.087 170.509 213.982 170.509 214.43 170.061 214.43 170.509 215.325 169.612 216.221 168.714 217.117 168.714 251.597 170.061 250.702 171.856 252.493 178.591 256.075 183.529 255.179 191.162 252.493 194.304 253.836 198.794 256.075 203.732 256.523 205.977 258.762 206.875 262.345 205.079 267.27 204.63 272.196 208.222 272.644 209.569 273.539 210.916 272.196 214.058 270.852 214.956 273.987 217.201 274.435 218.099 272.644 218.547 272.644 220.344 270.852 222.139 271.748 224.833 270.852 227.078 273.539 229.322 255.179 228.874 252.045 225.731 251.149 227.078 248.462 226.18 247.567 227.527 246.224 230.669 242.193 234.261 242.193 236.057 239.955 235.608 239.955 233.363 237.715 232.466 236.372 231.119 234.581 232.016 233.685 229.772 232.789 228.874 230.551 227.527 228.76 225.282 226.968 224.833 226.968 224.384 227.416 222.588 226.072 220.793 224.729 218.547 223.834 218.099 223.834 217.65 222.938 217.65 222.042 216.752 221.595 216.752 221.147 216.752 220.699 215.854 219.803 215.405 219.356 214.956 219.356 214.058 218.46 213.61 218.012 213.61 217.565 213.16 217.117 212.711 215.773 212.263 215.325 212.263 213.534 211.813 212.639 211.365 212.191 211.365 211.743 210.916 209.952 210.018 208.161 209.12 207.265 208.671 206.37 208.222 205.922 207.773 205.474 207.324 204.131 207.324 204.131 206.875 203.682 206.875 203.682 206.426 203.235 205.977 203.235 205.977"/><polygon class="cls-7" points="214.43 231.119 213.087 229.322 211.743 227.976 210.848 227.078 208.608 225.731 208.161 225.731 207.713 225.731 206.817 226.629 205.922 227.527 205.026 228.425 204.578 228.425 203.682 227.976 202.339 227.527 201.444 227.078 200.548 227.527 200.101 228.874 198.757 228.874 197.861 228.874 196.966 228.874 196.518 228.874 195.175 228.874 192.935 227.976 189.801 225.731 188.457 224.833 185.771 222.588 183.98 221.241 179.949 215.854 179.501 214.507 177.263 210.916 176.367 210.467 176.815 209.569 175.023 205.528 174.576 201.038 181.293 201.038 181.293 198.345 189.353 198.345 189.801 190.713 190.249 191.162 190.249 191.61 190.697 192.509 191.144 192.509 191.144 192.957 191.592 193.406 192.04 193.406 192.488 193.855 193.383 194.753 193.831 196.1 194.727 196.998 196.07 197.896 196.518 198.345 196.966 198.794 198.309 199.243 198.757 199.691 199.204 200.59 200.101 201.487 200.548 202.834 200.548 203.732 200.996 204.181 201.444 204.63 203.235 205.977 203.682 206.426 203.682 206.875 204.131 206.875 204.131 207.324 205.474 207.324 205.922 207.773 206.37 208.222 207.265 208.671 208.161 209.12 209.952 210.018 211.743 210.916 212.191 211.365 212.639 211.365 213.534 211.813 215.325 212.263 215.773 212.263 217.117 212.711 217.565 213.16 218.012 213.61 218.46 213.61 219.356 214.058 219.356 214.956 219.803 215.405 220.699 215.854 221.147 216.752 221.595 216.752 222.042 216.752 222.938 217.65 223.834 217.65 223.834 218.099 224.729 218.547 226.072 220.793 227.416 222.588 226.968 224.384 226.968 224.833 228.76 225.282 230.551 227.527 232.789 228.874 233.685 229.772 234.581 232.016 236.372 231.119 237.715 232.466 239.955 233.363 239.955 235.608 237.715 235.608 235.924 234.261 234.581 236.057 234.133 235.159 233.685 235.159 233.685 234.71 233.685 234.261 232.789 233.812 232.342 234.261 231.894 234.71 231.446 234.71 230.551 234.261 230.103 234.261 229.655 233.363 228.76 233.812 228.312 233.812 227.864 234.261 227.416 233.812 226.968 233.812 226.52 234.261 226.072 234.261 225.177 234.261 222.938 236.955 221.595 236.955 219.803 238.751 219.356 240.547 217.565 237.404 214.878 231.567 214.43 231.119 214.43 231.119"/><polygon class="cls-8" points="201.444 103.166 200.548 102.718 194.727 105.86 192.935 105.86 191.144 105.86 189.353 103.615 183.98 102.268 182.188 102.718 181.741 100.921 180.845 100.024 179.054 97.33 178.158 95.983 173.68 92.84 170.994 91.942 170.546 91.942 170.098 91.493 170.546 91.493 180.397 91.493 181.741 91.493 184.875 91.942 187.114 91.942 187.562 88.8 188.457 81.167 188.906 77.127 192.935 73.984 200.548 70.842 199.653 67.699 199.204 66.352 196.518 62.76 196.07 60.964 196.07 59.169 197.861 54.23 198.309 51.536 202.339 51.088 204.578 53.781 206.37 54.679 208.608 52.883 210.848 51.088 212.639 49.741 215.325 50.19 217.565 49.292 219.803 49.292 223.834 51.088 226.52 51.088 227.864 50.639 232.789 49.741 234.581 51.088 234.133 55.577 234.581 55.577 234.133 75.331 243.089 75.331 241.746 77.576 241.746 80.719 241.746 84.759 240.402 88.8 239.059 88.8 236.372 90.147 234.133 92.84 234.133 94.187 232.342 98.228 231.446 100.921 228.76 100.921 224.282 103.615 221.147 103.166 219.803 101.82 218.012 102.718 218.012 103.615 217.565 104.064 215.773 104.962 212.639 104.962 207.713 102.268 203.235 103.166 201.444 103.166 201.444 103.166"/><polygon class="cls-4" points="170.546 91.942 169.65 93.289 166.963 95.534 166.068 95.534 165.62 95.534 162.933 95.534 162.485 95.983 162.485 96.432 161.59 95.983 160.694 93.738 158.007 90.595 156.664 90.147 156.216 87.902 154.425 87.004 153.529 87.004 153.081 87.453 152.634 87.902 150.395 87.902 149.947 87.902 149.499 87.902 149.051 87.902 148.604 87.902 147.708 87.004 147.26 87.004 147.26 86.555 146.364 86.555 145.916 86.555 145.469 86.555 145.469 86.106 145.021 86.106 144.126 85.657 143.678 85.657 142.334 84.31 140.543 84.31 136.065 80.27 126.662 71.291 125.766 71.291 125.318 71.739 124.87 72.189 124.422 71.739 123.974 71.739 123.974 72.189 123.527 72.189 123.527 71.739 123.974 71.739 123.527 71.739 123.527 72.189 123.079 71.739 122.631 72.189 122.183 71.739 119.049 72.189 117.705 73.536 115.914 71.739 114.571 71.291 113.675 71.739 113.227 72.189 113.227 72.637 113.227 73.086 112.78 73.086 112.331 72.637 111.436 70.393 111.884 69.046 112.331 65.903 110.988 62.311 109.197 59.618 107.853 56.924 107.406 55.577 105.615 54.679 103.824 52.435 101.137 50.19 96.659 48.394 93.524 44.802 92.629 44.353 89.942 41.66 89.046 38.966 88.598 38.068 86.36 36.721 85.912 35.374 84.12 32.232 83.672 31.334 81.434 27.742 80.538 26.395 79.195 24.151 76.508 22.354 74.717 21.008 73.821 19.661 72.925 17.865 74.269 19.212 76.06 16.967 87.703 17.865 87.703 14.273 96.659 14.722 108.302 14.722 108.302 11.579 113.227 12.028 113.227 10.232 136.065 11.579 136.961 12.478 137.857 12.926 138.304 12.926 138.752 13.824 140.095 14.722 140.991 15.62 142.334 17.416 142.334 18.314 143.23 19.661 144.126 21.008 144.573 22.354 145.469 23.701 146.364 25.497 147.26 27.742 149.947 28.191 151.738 29.537 152.634 32.68 151.738 38.068 151.29 41.66 153.081 44.802 158.007 48.843 159.798 51.536 161.142 55.128 164.276 59.169 166.516 66.801 169.202 69.495 170.098 71.739 171.441 73.984 170.994 76.229 171.889 78.025 172.337 79.82 172.785 80.719 174.128 81.167 174.576 85.208 173.232 91.045 170.098 91.493 170.546 91.942 170.546 91.942"/><polygon class="cls-8" points="208.608 52.883 206.37 54.679 204.578 53.781 202.339 51.088 198.309 51.536 197.413 50.19 196.07 43.904 195.175 40.762 194.279 38.966 192.935 39.415 193.383 36.721 193.383 36.272 192.488 35.374 191.144 34.476 190.249 32.68 189.353 30.884 188.01 27.293 186.666 25.048 185.323 19.661 181.741 14.273 176.367 13.375 173.68 11.131 171.441 6.641 173.232 3.947 178.606 4.396 179.054 4.396 179.949 4.396 180.397 4.396 223.386 5.743 224.729 6.641 225.625 7.988 225.625 9.335 224.729 10.682 226.52 12.478 228.76 12.926 230.998 12.478 232.342 13.824 232.342 15.62 233.238 19.661 234.133 20.11 235.477 21.906 235.477 23.701 237.267 25.048 237.267 25.946 237.715 25.497 238.163 24.599 239.507 24.151 239.955 23.701 240.85 23.252 242.641 22.354 243.985 24.599 243.089 27.742 243.089 29.537 240.85 31.782 240.85 34.476 243.537 38.068 245.328 37.619 245.776 37.619 246.224 38.068 246.224 38.517 246.224 38.966 246.224 39.864 246.224 40.313 246.671 40.313 246.671 40.762 246.671 41.21 246.671 42.108 247.119 42.557 247.119 43.007 247.567 43.007 247.567 43.455 248.015 43.455 248.015 43.007 248.462 43.007 248.91 43.007 248.91 42.557 249.358 42.557 249.806 42.557 250.254 43.007 250.702 43.007 251.149 43.007 251.149 43.455 251.149 43.904 251.149 44.353 251.149 44.802 251.149 45.251 251.149 45.7 250.702 45.7 250.702 46.149 250.254 46.598 250.254 47.047 249.806 47.047 250.254 47.496 250.254 47.945 250.702 48.394 250.702 48.843 250.702 49.292 250.702 49.741 250.702 50.19 250.254 50.19 249.806 50.639 249.358 50.639 249.358 51.088 248.91 51.088 248.91 51.536 249.358 51.536 249.358 51.985 249.358 52.435 248.91 52.435 248.462 52.435 248.015 52.883 247.567 52.883 247.119 52.883 247.119 53.333 246.671 53.781 246.671 54.23 246.671 54.679 246.224 54.679 246.671 54.679 246.671 55.128 246.671 55.577 247.119 55.577 247.119 56.026 247.119 56.475 247.567 56.475 247.567 56.924 248.015 56.924 248.015 57.373 248.462 57.373 248.91 57.373 249.358 57.373 249.806 57.373 250.254 57.373 250.702 57.373 250.702 57.822 251.149 57.822 251.149 58.271 251.149 61.413 248.462 62.311 249.806 65.005 250.254 67.25 249.358 68.148 249.358 70.393 248.015 71.739 245.776 72.189 244.432 73.984 243.985 73.536 243.089 75.331 234.133 75.331 234.581 55.577 234.133 55.577 234.581 51.088 232.789 49.741 227.864 50.639 226.52 51.088 223.834 51.088 219.803 49.292 217.565 49.292 215.325 50.19 212.639 49.741 210.848 51.088 208.608 52.883 208.608 52.883"/><polygon class="cls-8" points="145.469 -48.581 198.309 -47.234 198.309 -50.376 209.504 -49.927 209.504 -46.785 219.803 -46.336 220.251 -45.438 218.908 -43.193 219.356 -41.397 218.012 -37.357 217.117 -36.459 214.878 -31.969 215.325 -27.031 215.773 -20.745 217.117 -16.705 220.251 -10.419 224.729 -5.032 225.177 -1.44 222.938 2.6 223.386 5.743 180.397 4.396 179.949 4.396 179.054 4.396 178.606 4.396 177.71 3.947 175.023 1.253 172.785 -1.44 172.785 -5.481 167.859 -9.521 166.516 -10.419 166.068 -12.215 166.068 -13.562 166.516 -14.46 166.516 -15.358 166.068 -16.705 165.62 -18.95 166.516 -20.297 167.411 -20.297 167.411 -21.194 167.411 -22.092 164.276 -27.479 157.559 -29.275 155.768 -29.725 153.529 -29.725 147.26 -34.214 143.678 -38.703 143.678 -44.54 145.469 -48.581 145.469 -48.581"/><polygon class="cls-8" points="389.519 3.947 389.519 4.396 390.415 4.845 393.102 7.539 394.893 9.335 395.341 12.926 394.445 13.824 395.788 14.722 394.445 16.069 393.102 16.518 392.653 18.763 389.967 22.354 389.519 24.599 387.728 25.497 378.324 33.578 377.429 33.578 374.294 35.823 372.951 38.068 368.473 41.21 363.099 46.598 355.487 51.088 350.113 51.985 347.426 52.883 343.396 53.333 339.366 54.679 335.335 54.679 332.201 55.577 329.066 55.577 323.245 52.883 319.662 50.639 315.632 49.741 312.498 49.292 310.259 49.741 308.915 50.19 308.02 51.536 306.229 51.985 305.333 52.435 303.542 53.333 301.751 53.333 300.407 53.333 298.168 53.781 295.929 53.781 295.033 53.781 293.69 54.679 288.317 38.517 287.869 36.721 286.526 32.232 286.078 30.884 283.838 31.334 286.078 26.395 287.421 21.906 289.212 19.661 288.764 18.314 289.212 17.416 289.66 16.967 290.555 16.518 291.451 16.069 291.451 15.171 291.451 14.722 291.899 12.926 291.899 11.579 292.347 10.682 292.795 8.886 293.242 8.437 293.69 8.437 296.825 7.988 297.721 7.09 300.407 5.743 302.199 6.192 302.199 3.05 305.781 4.396 306.676 3.498 309.363 4.396 310.259 1.703 311.602 2.151 312.05 0.356 313.393 -0.991 314.737 -0.542 317.871 -1.889 319.215 -1.889 320.558 -1.44 322.797 1.253 324.589 0.356 324.589 3.05 328.171 5.743 330.858 5.743 332.649 6.641 334.44 8.886 335.783 8.886 336.679 7.539 339.813 7.09 341.605 5.743 342.052 4.396 343.396 3.498 345.635 -2.338 346.53 -3.685 355.934 -2.787 363.995 -2.787 363.995 -3.685 368.92 -3.685 370.264 -4.583 372.503 -7.725 384.593 -7.725 385.041 -0.094 389.519 3.947 389.519 3.947"/><polygon class="cls-8" points="133.826 -71.477 146.812 -71.028 146.364 -62.947 146.812 -59.355 145.469 -54.417 145.469 -48.581 143.678 -44.54 143.678 -38.703 147.26 -34.214 153.529 -29.725 155.768 -29.725 157.559 -29.275 164.276 -27.479 167.411 -22.092 167.411 -21.194 167.411 -20.297 166.516 -20.297 165.62 -18.95 166.068 -16.705 166.516 -15.358 166.516 -14.46 166.068 -13.562 166.068 -12.215 166.516 -10.419 167.859 -9.521 172.785 -5.481 172.785 -1.44 175.023 1.253 177.71 3.947 178.606 4.396 173.232 3.947 171.441 6.641 173.68 11.131 172.785 12.028 174.576 14.722 175.471 16.518 175.023 18.314 173.232 17.865 171.889 20.11 172.785 21.457 171.441 21.906 166.963 29.088 152.634 32.68 151.738 29.537 149.947 28.191 147.26 27.742 146.364 25.497 145.469 23.701 144.573 22.354 144.126 21.008 143.23 19.661 142.334 18.314 142.334 17.416 140.991 15.62 140.095 14.722 138.752 13.824 138.304 12.926 137.857 12.926 136.961 12.478 136.065 11.579 134.721 9.335 129.796 7.539 129.796 6.192 128.452 5.294 125.318 5.294 125.318 2.6 123.527 1.703 122.631 -0.094 123.079 -4.134 122.183 -5.93 118.601 -5.93 116.362 -8.623 116.362 -12.215 115.467 -13.562 113.227 -14.46 113.227 -17.154 114.123 -17.154 114.123 -22.092 115.019 -22.092 115.019 -26.133 117.705 -26.133 118.601 -27.929 120.84 -31.071 120.84 -32.867 122.631 -32.867 122.631 -35.112 121.736 -37.806 120.392 -37.806 120.84 -42.744 119.049 -44.54 119.497 -47.683 117.705 -49.029 118.153 -52.621 116.362 -52.621 116.81 -57.56 117.705 -57.56 117.705 -63.396 121.288 -65.192 128.9 -64.294 128.9 -66.09 132.931 -65.641 133.826 -71.477 133.826 -71.477"/><polygon class="cls-8" points="310.259 172.754 349.217 154.347 355.039 167.367 355.487 170.061 356.83 170.958 359.069 175.897 358.173 178.142 363.995 188.019 365.338 190.713 367.129 193.406 366.682 194.753 367.577 196.549 370.712 199.243 375.637 201.487 378.772 205.528 373.846 207.324 368.473 207.773 363.099 207.773 357.277 209.12 352.799 212.263 346.978 212.711 346.53 213.61 340.261 215.405 334.44 220.793 329.066 226.18 330.41 227.078 329.962 228.874 329.962 231.119 323.692 231.119 299.959 254.913 298.616 253.567 279.808 243.689 278.913 240.547 276.226 236.955 275.778 234.71 272.644 235.159 271.748 233.363 273.539 229.322 270.852 227.078 271.748 224.833 270.852 222.139 272.644 220.344 272.644 218.547 274.435 218.099 273.987 217.201 270.852 214.956 272.196 214.058 273.539 210.916 272.644 209.569 291.899 190.713 292.347 190.713 292.795 190.263 293.242 189.815 293.69 189.365 295.482 187.57 295.929 187.121 296.377 185.774 295.482 184.876 295.482 183.978 295.482 183.081 295.482 182.631 295.033 181.734 295.482 179.938 297.721 179.04 299.064 178.142 299.512 178.142 299.959 177.693 309.811 173.203 310.259 172.754 310.259 172.754 310.259 172.754"/><polyline class="cls-8" points="206.37 281.851 206.37 280.504 206.37 279.157 205.922 278.708 205.922 277.361 207.713 277.361 207.713 276.912 207.265 273.32 206.37 272.423 205.922 272.423 205.474 272.871 205.026 272.871 205.026 272.423 203.682 271.524 203.235 270.627 203.682 270.627 204.131 270.627 204.131 270.178 206.817 266.586 206.817 266.137 206.817 264.79 207.265 264.79 207.713 264.79 208.161 264.79 209.952 266.586 210.4 267.035 211.295 267.933 211.295 268.831 211.743 268.831 212.191 268.382 212.639 268.382 213.087 268.382 213.982 267.484 213.982 267.484 213.982 267.484 215.773 265.688 216.669 263.892 217.117 262.545 218.46 259.851 219.356 256.26 219.356 252.219 221.147 245.934 220.699 244.587 219.356 240.995 219.356 240.547 219.803 238.751 221.595 236.955 222.938 236.955 225.177 234.261 226.072 234.261 226.52 234.261 226.968 233.812 227.416 233.812 227.864 234.261 228.312 233.812 228.76 233.812 229.655 233.363 230.103 234.261 230.551 234.261 231.446 234.71 231.894 234.71 232.342 234.261 232.789 233.812 233.685 234.261 233.685 234.71 233.685 235.159 234.133 235.159 234.581 236.057 234.581 236.506 234.581 237.853 234.581 238.302 235.029 239.2 243.985 249.076 249.358 253.117 250.254 256.709 249.358 258.954 252.493 261.198 256.075 263.443 261.001 266.586 261.897 273.32 264.583 278.708 268.614 280.952"/><polygon class="cls-8" points="372.055 -36.01 384.593 -36.01 384.593 -26.133 384.593 -25.684 384.593 -25.235 384.593 -18.95 384.593 -12.664 384.593 -7.725 372.503 -7.725 370.264 -4.583 368.92 -3.685 363.995 -3.685 363.995 -2.787 355.934 -2.787 346.53 -3.685 345.635 -2.338 343.396 3.498 342.052 4.396 341.605 5.743 339.813 7.09 336.679 7.539 335.783 8.886 334.44 8.886 332.649 6.641 330.858 5.743 328.171 5.743 324.589 3.05 324.589 0.356 322.797 1.253 320.558 -1.44 319.215 -1.889 317.871 -1.889 314.737 -0.542 313.393 -0.991 312.05 0.356 311.602 2.151 310.259 1.703 309.363 4.396 306.676 3.498 305.781 4.396 302.199 3.05 302.199 6.192 300.407 5.743 297.721 7.09 296.825 7.988 293.69 8.437 293.242 8.437 292.795 8.886 292.347 10.682 291.899 11.579 291.899 12.926 291.451 14.722 291.451 15.171 291.451 16.069 290.555 16.518 289.66 16.967 289.212 17.416 288.764 18.314 289.212 19.661 287.421 21.906 286.078 26.395 283.838 31.334 281.152 30.884 280.704 30.884 280.256 30.884 279.808 30.884 274.883 30.435 264.136 29.088 254.732 28.191 253.836 28.191 253.836 25.946 255.179 25.946 255.627 6.192 260.105 6.641 260.553 -1.44 260.553 -2.338 261.449 -2.787 262.345 -3.236 263.24 -4.134 264.136 -5.032 265.031 -5.481 266.374 -5.481 267.27 -5.93 267.718 -6.378 268.166 -6.828 268.614 -6.828 269.061 -7.277 269.509 -7.725 270.405 -7.277 271.3 -6.378 272.644 -5.481 273.092 -5.481 273.539 -5.032 273.987 -5.032 274.435 -4.583 275.331 -4.134 276.226 -4.134 276.674 -4.134 277.122 -3.236 278.017 -2.787 278.913 -3.236 279.361 -3.236 280.256 -3.236 280.704 -3.236 281.6 -3.685 282.047 -3.685 282.943 -4.134 283.838 -4.583 284.286 -5.032 285.182 -5.481 286.078 -5.032 286.078 -4.583 286.526 -3.685 287.421 -3.236 288.317 -2.787 288.764 -2.787 289.66 -2.338 290.108 -1.889 291.004 -1.889 291.451 -2.338 291.899 -2.338 292.347 -2.338 292.347 -2.787 292.795 -2.787 293.242 -2.787 293.69 -2.787 293.69 -3.236 293.69 -3.685 294.138 -4.134 294.138 -4.583 294.586 -4.583 294.586 -5.032 294.586 -5.481 294.138 -5.481 294.586 -5.481 295.033 -5.481 295.033 -5.93 296.825 -8.174 297.721 -10.419 298.168 -13.562 299.512 -14.46 302.199 -17.603 305.333 -20.297 305.781 -20.745 306.229 -21.194 306.676 -20.745 306.676 -21.194 307.124 -21.194 308.468 -21.194 308.915 -21.643 308.915 -22.092 309.363 -22.092 308.915 -22.541 309.363 -22.541 309.363 -22.99 309.811 -22.99 309.811 -23.439 309.811 -23.888 310.259 -24.786 310.707 -25.235 311.602 -25.235 312.498 -26.133 312.945 -26.582 313.393 -26.582 313.393 -27.031 313.842 -27.031 314.289 -27.479 314.737 -27.479 315.185 -27.929 315.632 -27.929 315.632 -28.378 316.08 -28.378 316.08 -28.826 317.871 -29.725 318.319 -30.622 318.767 -30.622 318.767 -31.071 319.215 -31.071 319.662 -31.52 319.662 -31.969 320.111 -31.969 320.111 -32.418 320.558 -32.418 320.558 -32.867 321.006 -33.316 321.454 -33.316 321.902 -33.765 323.692 -34.663 324.14 -34.663 324.589 -35.112 325.484 -35.561 325.932 -35.561 326.38 -36.01 326.38 -35.561 326.827 -35.561 327.275 -36.01 327.275 -35.561 327.723 -35.561 328.618 -36.459 345.187 -36.459 358.621 -36.01 359.517 -36.01 368.025 -36.01 369.368 -36.01 370.712 -36.01 371.607 -36.01 372.055 -36.01 372.055 -36.01"/><polygon class="cls-8" points="283.838 31.334 286.078 30.884 286.526 32.232 287.869 36.721 288.317 38.517 293.69 54.679 293.242 78.473 291.004 79.372 289.66 78.025 286.973 79.82 281.152 81.617 280.256 82.964 278.017 82.964 275.778 83.861 273.539 83.861 271.748 82.964 269.957 83.861 269.509 84.31 269.061 84.759 268.614 84.759 264.583 85.657 260.553 85.208 260.105 85.657 257.867 84.31 257.419 82.514 253.388 81.617 252.493 83.861 252.045 84.31 251.597 85.208 251.149 85.657 250.702 85.657 250.254 86.106 250.702 87.004 249.358 88.351 248.91 88.351 248.462 89.248 248.462 90.147 248.462 90.595 248.462 91.942 248.015 92.392 247.567 93.289 247.567 94.187 247.119 94.187 246.224 94.636 245.328 95.085 244.88 95.983 243.985 96.432 243.537 96.881 243.985 98.677 243.985 100.024 243.537 100.473 241.298 99.575 239.059 100.024 238.163 100.921 236.372 100.024 235.029 100.024 234.581 101.371 234.133 104.064 232.789 105.411 229.207 107.656 225.625 108.554 222.491 108.105 220.699 106.758 220.251 104.513 218.012 102.718 219.803 101.82 221.147 103.166 224.282 103.615 228.76 100.921 231.446 100.921 232.342 98.228 234.133 94.187 234.133 92.84 236.372 90.147 239.059 88.8 240.402 88.8 241.746 84.759 241.746 80.719 241.746 77.576 243.089 75.331 243.985 73.536 244.432 73.984 245.776 72.189 248.015 71.739 249.358 70.393 249.358 68.148 250.254 67.25 249.806 65.005 248.462 62.311 251.149 61.413 251.149 58.271 251.149 57.822 250.702 57.822 250.702 57.373 250.254 57.373 249.806 57.373 249.358 57.373 248.91 57.373 248.462 57.373 248.015 57.373 248.015 56.924 247.567 56.924 247.567 56.475 247.119 56.475 247.119 56.026 247.119 55.577 246.671 55.577 246.671 55.128 246.671 54.679 246.224 54.679 246.671 54.679 246.671 54.23 246.671 53.781 247.119 53.333 247.119 52.883 247.567 52.883 248.015 52.883 248.462 52.435 248.91 52.435 249.358 52.435 249.358 51.985 249.358 51.536 248.91 51.536 248.91 51.088 249.358 51.088 249.358 50.639 249.806 50.639 250.254 50.19 250.702 50.19 250.702 49.741 250.702 49.292 250.702 48.843 250.702 48.394 250.254 47.945 250.254 47.496 249.806 47.047 250.254 47.047 250.254 46.598 250.702 46.149 250.702 45.7 251.149 45.7 251.149 45.251 251.149 44.802 251.149 44.353 251.149 43.904 251.149 43.455 251.149 43.007 250.702 43.007 250.254 43.007 249.806 42.557 249.358 42.557 248.91 42.557 248.91 43.007 248.462 43.007 248.015 43.007 248.015 43.455 247.567 43.455 247.567 43.007 247.119 43.007 247.119 42.557 246.671 42.108 246.671 41.21 246.671 40.762 246.671 40.313 246.224 40.313 246.224 39.864 246.224 38.966 246.224 38.517 246.224 38.068 245.776 37.619 245.328 37.619 243.537 38.068 240.85 34.476 240.85 31.782 243.089 29.537 243.089 27.742 250.254 27.742 253.836 28.191 254.732 28.191 264.136 29.088 274.883 30.435 279.808 30.884 280.256 30.884 280.704 30.884 281.152 30.884 283.838 31.334 283.838 31.334"/><polyline class="cls-8" points="268.614 280.952 264.583 278.708 261.897 273.32 261.001 266.586 256.075 263.443 252.493 261.198 249.358 258.954 250.254 256.709 249.358 253.117 243.985 249.076 235.029 239.2 234.581 238.302 234.581 237.853 234.581 236.506 234.581 236.057 235.924 234.261 237.715 235.608 239.955 235.608 242.193 236.057 242.193 234.261 246.224 230.669 247.567 227.527 248.462 226.18 251.149 227.078 252.045 225.731 255.179 228.874 273.539 229.322 271.748 233.363 272.644 235.159 275.778 234.71 276.226 236.955 278.913 240.547 279.808 243.689 298.616 253.567 299.959 254.913"/><polygon class="cls-8" points="269.957 83.861 271.748 82.964 273.539 83.861 275.778 83.861 278.017 82.964 280.256 82.964 281.152 81.617 286.973 79.82 289.66 78.025 291.004 79.372 293.242 78.473 295.929 86.555 300.407 102.268 301.751 103.615 301.302 114.839 301.302 132.797 301.302 133.247 301.302 133.696 301.302 134.144 301.302 134.593 301.302 135.042 301.302 135.491 301.302 136.389 301.302 136.838 301.302 138.185 301.302 138.634 301.302 139.532 301.302 140.878 301.302 141.327 301.302 141.777 300.855 141.777 300.407 141.777 299.959 141.327 299.512 141.327 299.064 141.777 298.616 141.777 298.168 141.777 298.168 141.327 297.721 141.327 297.273 141.327 297.273 140.878 296.825 140.878 296.825 140.43 296.377 140.43 296.377 139.98 295.929 139.98 295.929 139.532 295.482 139.532 295.033 139.532 295.033 139.083 294.586 139.532 294.586 139.98 294.138 139.98 294.138 140.43 294.138 139.98 294.138 140.43 293.69 140.43 293.242 140.43 293.242 139.98 293.242 139.532 292.795 139.532 292.795 139.98 292.795 140.43 292.347 140.43 292.347 140.878 291.899 141.327 291.451 141.327 291.004 141.327 291.004 141.777 291.004 141.327 290.555 141.327 290.555 141.777 289.212 140.43 287.421 141.777 284.734 141.777 284.734 142.225 284.734 142.674 284.286 142.674 283.838 142.674 283.838 143.124 283.391 143.124 283.391 143.572 283.391 143.124 282.943 143.124 282.495 143.124 282.495 143.572 282.495 143.124 282.047 143.124 281.6 143.124 281.6 143.572 281.152 143.572 281.152 144.021 281.152 143.572 280.704 143.572 280.256 143.572 280.256 144.021 280.256 144.47 279.808 144.47 279.808 144.919 280.256 144.919 279.808 144.919 278.017 146.266 276.674 146.715 274.435 148.062 274.435 148.96 271.3 150.756 269.509 152.552 264.136 157.939 251.597 170.061 251.597 169.162 249.806 167.367 249.358 165.122 244.88 164.224 243.985 162.878 244.88 131.9 245.328 131.45 245.328 130.104 246.224 129.206 246.671 128.757 246.671 128.308 245.328 127.41 244.432 127.41 243.985 126.961 243.089 126.512 243.537 124.267 243.985 122.022 244.88 120.227 244.432 117.982 244.432 117.084 243.985 115.737 243.537 113.941 243.089 113.941 243.537 111.248 243.089 110.349 243.985 109.452 244.432 109.003 244.88 108.105 243.985 107.207 243.089 106.309 243.089 104.962 243.985 102.718 243.537 100.473 243.985 100.024 243.985 98.677 243.537 96.881 243.985 96.432 244.88 95.983 245.328 95.085 246.224 94.636 247.119 94.187 247.567 94.187 247.567 93.289 248.015 92.392 248.462 91.942 248.462 90.595 248.462 90.147 248.462 89.248 248.91 88.351 249.358 88.351 250.702 87.004 250.254 86.106 250.702 85.657 251.149 85.657 251.597 85.208 252.045 84.31 252.493 83.861 253.388 81.617 257.419 82.514 257.867 84.31 260.105 85.657 260.553 85.208 264.583 85.657 268.614 84.759 269.061 84.759 269.509 84.31 269.957 83.861 269.957 83.861"/><polygon class="cls-8" points="349.217 154.347 310.259 172.754 309.811 173.203 299.959 177.693 299.512 178.142 299.064 178.142 297.721 179.04 295.482 179.938 295.033 181.734 295.482 182.631 295.482 183.081 295.482 183.978 295.482 184.876 296.377 185.774 295.929 187.121 295.482 187.57 293.69 189.365 293.242 189.815 292.795 190.263 292.347 190.713 291.899 190.713 272.644 209.569 272.196 208.222 267.27 204.63 262.345 205.079 258.762 206.875 256.523 205.977 256.075 203.732 253.836 198.794 252.493 194.304 255.179 191.162 256.075 183.529 252.493 178.591 250.702 171.856 251.597 170.061 264.136 157.939 269.509 152.552 271.3 150.756 274.435 148.96 274.435 148.062 276.674 146.715 278.017 146.266 279.808 144.919 280.256 144.919 279.808 144.919 279.808 144.47 280.256 144.47 280.256 144.021 280.256 143.572 280.704 143.572 281.152 143.572 281.152 144.021 281.152 143.572 281.6 143.572 281.6 143.124 282.047 143.124 282.495 143.124 282.495 143.572 282.495 143.124 282.943 143.124 283.391 143.124 283.391 143.572 283.391 143.124 283.838 143.124 283.838 142.674 284.286 142.674 284.734 142.674 284.734 142.225 284.734 141.777 287.421 141.777 289.212 140.43 290.555 141.777 290.555 141.327 291.004 141.327 291.004 141.777 291.004 141.327 291.451 141.327 291.899 141.327 292.347 140.878 292.347 140.43 292.795 140.43 292.795 139.98 292.795 139.532 293.242 139.532 293.242 139.98 293.242 140.43 293.69 140.43 294.138 140.43 294.138 139.98 294.138 140.43 294.138 139.98 294.586 139.98 294.586 139.532 295.033 139.083 295.033 139.532 295.482 139.532 295.929 139.532 295.929 139.98 296.377 139.98 296.377 140.43 296.825 140.43 296.825 140.878 297.273 140.878 297.273 141.327 297.721 141.327 298.168 141.327 298.168 141.777 298.616 141.777 299.064 141.777 299.512 141.327 299.959 141.327 300.407 141.777 300.855 141.777 301.302 141.777 301.302 141.327 301.302 140.878 301.302 139.532 301.302 138.634 301.302 138.185 301.302 136.838 301.302 136.389 301.302 135.491 301.302 135.042 301.302 134.593 301.302 134.144 301.302 133.696 301.302 133.247 301.302 132.797 301.302 114.839 301.751 103.615 306.229 109.003 309.811 113.043 316.976 121.124 317.423 122.471 325.484 131.9 349.217 154.347 349.217 154.347"/><polygon class="cls-8" points="243.089 -36.01 242.641 -35.561 242.193 -35.561 242.193 -34.663 242.641 -34.214 243.089 -33.316 242.641 -33.316 242.193 -33.316 242.193 -32.867 242.193 -32.418 242.641 -32.418 243.089 -32.418 242.641 -31.969 242.193 -31.969 241.746 -31.969 241.746 -31.52 242.641 -27.929 243.537 -26.582 243.089 -26.582 243.089 -26.133 243.089 -25.684 242.641 -25.684 243.537 -24.337 243.089 -21.194 243.537 -21.194 243.537 -20.745 243.537 -20.297 243.985 -20.297 243.985 -19.847 243.985 -19.398 243.985 -18.95 243.985 -18.5 243.985 -18.051 243.985 -17.603 244.432 -17.603 244.88 -16.705 244.432 -16.256 243.985 -15.358 244.432 -14.46 244.432 -13.562 244.88 -13.562 245.328 -14.011 245.328 -13.562 245.776 -13.113 245.328 -11.766 244.432 -10.868 244.432 -10.419 243.985 -9.97 243.537 -9.072 243.537 -6.828 244.432 -5.481 244.88 -3.236 245.328 -1.44 245.776 2.151 245.776 3.498 245.776 4.845 245.776 5.743 246.224 5.294 247.119 3.947 249.806 1.253 254.284 -1.44 256.523 -1.889 258.762 -1.44 259.657 -1.44 260.553 -1.44 260.105 6.641 255.627 6.192 255.179 25.946 253.836 25.946 253.836 28.191 250.254 27.742 243.089 27.742 243.985 24.599 242.641 22.354 240.85 23.252 239.955 23.701 239.507 24.151 238.163 24.599 237.715 25.497 237.267 25.946 237.267 25.048 235.477 23.701 235.477 21.906 234.133 20.11 233.238 19.661 232.342 15.62 232.342 13.824 230.998 12.478 228.76 12.926 226.52 12.478 224.729 10.682 225.625 9.335 225.625 7.988 224.729 6.641 223.386 5.743 222.938 2.6 225.177 -1.44 224.729 -5.032 220.251 -10.419 217.117 -16.705 215.773 -20.745 215.325 -27.031 214.878 -31.969 217.117 -36.459 218.012 -37.357 242.193 -36.907 242.193 -36.459 242.641 -36.01 243.089 -36.01 243.089 -36.01"/><polygon class="cls-8" points="244.432 -17.603 243.985 -17.603 243.985 -18.051 243.985 -18.5 243.985 -18.95 243.985 -19.398 243.985 -19.847 243.985 -20.297 243.537 -20.297 243.537 -20.745 243.537 -21.194 243.089 -21.194 243.537 -24.337 242.641 -25.684 243.089 -25.684 243.089 -26.133 243.089 -26.582 243.537 -26.582 242.641 -27.929 241.746 -31.52 241.746 -31.969 242.193 -31.969 242.641 -31.969 243.089 -32.418 242.641 -32.418 242.193 -32.418 242.193 -32.867 242.193 -33.316 242.641 -33.316 243.089 -33.316 242.641 -34.214 242.193 -34.663 242.193 -35.561 242.641 -35.561 243.089 -36.01 243.537 -36.459 244.88 -37.357 247.567 -37.357 250.702 -37.806 253.388 -37.806 255.627 -39.153 257.867 -40.05 260.553 -40.05 262.792 -41.846 265.031 -43.193 265.927 -46.336 267.27 -49.029 267.718 -51.274 268.614 -54.417 268.614 -54.866 270.405 -55.764 271.3 -58.009 271.3 -60.702 273.987 -60.702 273.987 -59.804 277.122 -59.804 277.122 -61.151 282.047 -61.151 284.286 -60.254 284.734 -61.151 285.182 -64.294 285.63 -65.192 288.764 -65.641 288.764 -67.436 291.004 -67.436 291.451 -68.783 297.273 -73.722 295.929 -64.743 292.795 -62.049 293.69 -59.804 295.033 -59.355 295.929 -45.438 295.482 -45.887 293.69 -45.887 290.555 -45.887 288.764 -44.54 286.526 -44.091 285.182 -41.397 282.495 -39.601 279.808 -37.806 278.017 -33.765 273.987 -29.725 272.644 -26.582 272.644 -20.297 272.644 -9.521 272.644 -5.481 271.3 -6.378 270.405 -7.277 269.509 -7.725 269.061 -7.277 268.614 -6.828 268.166 -6.828 267.718 -6.378 267.27 -5.93 266.374 -5.481 265.031 -5.481 264.136 -5.032 263.24 -4.134 262.345 -3.236 261.449 -2.787 260.553 -2.338 260.553 -1.44 259.657 -1.44 258.762 -1.44 256.523 -1.889 254.284 -1.44 249.806 1.253 247.119 3.947 246.224 5.294 245.776 5.743 245.776 4.845 245.776 3.498 245.776 2.151 245.328 -1.44 244.88 -3.236 244.432 -5.481 243.537 -6.828 243.537 -9.072 243.985 -9.97 244.432 -10.419 244.432 -10.868 245.328 -11.766 245.776 -13.113 245.328 -13.562 245.328 -14.011 244.88 -13.562 244.432 -13.562 244.432 -14.46 243.985 -15.358 244.432 -16.256 244.88 -16.705 244.432 -17.603 244.432 -17.603"/><rect class="cls-9" x="37.015" y="113.792" width="10.834" height="10.863"/><rect class="cls-10" x="37.015" y="130.554" width="10.834" height="10.863"/><rect class="cls-11" x="37.015" y="146.731" width="10.834" height="10.863"/><path class="cls-12" d="M55.775,120.718a2.677,2.677,0,0,0,1.512-.481,3.608,3.608,0,0,0,1.08-1.191q-.024,0-.432,1.685l-.432,1.817H50.519a1.742,1.742,0,0,0,.372-.939,6,6,0,0,0,.1-1.047v-3.1a6,6,0,0,0-.1-1.047,1.742,1.742,0,0,0-.372-.939h6.756v2.407a.936.936,0,0,0-.624-.457,2.64,2.64,0,0,0-.792-.12h-2.1v.974q1.38,0,1.62-.4v2.154q-.288-.469-1.476-.469h-.144v1.154Z"/><path class="cls-12" d="M64.127,117.1a2.559,2.559,0,0,0,.144.878l1,2.864q.5,1.421,1.188,1.7H62.687c.176-.079.264-.3.264-.649a2.048,2.048,0,0,0-.144-.674H60.659a2.029,2.029,0,0,0-.144.662q0,.53.264.661h-2.7q.684-.288,1.2-1.768L60.251,118a2.8,2.8,0,0,0,.144-.914,1.562,1.562,0,0,0-.108-.614h3.96A1.51,1.51,0,0,0,64.127,117.1Zm-3.064,2.936H62.4l-.662-1.918Z"/><path class="cls-12" d="M68.927,117.723q0,.18.948.625a12.723,12.723,0,0,1,1.452.794,4.6,4.6,0,0,1,.936.734,1.582,1.582,0,0,1,.432,1.083,1.636,1.636,0,0,1-1.032,1.468,4.194,4.194,0,0,1-1.98.41,3.93,3.93,0,0,1-2-.434,2.41,2.41,0,0,1-.888-.83,3.734,3.734,0,0,1-.384-1.167,2.72,2.72,0,0,0,2.316,1.071q.96,0,.96-.421,0-.253-.876-.7-1.32-.662-1.62-.866-.877-.6-.876-1.228a1.511,1.511,0,0,1,.3-.866,3.2,3.2,0,0,1,2.784-1.131,4.592,4.592,0,0,1,2.88.842v1.745a4.7,4.7,0,0,0-1.356-.927,3.783,3.783,0,0,0-1.572-.445Q68.927,117.482,68.927,117.723Z"/><path class="cls-12" d="M79.259,116.531l.708,2.792a3.111,3.111,0,0,0-1-.951,1.565,1.565,0,0,0-.756-.276H77.8v2.791a4.868,4.868,0,0,0,.084.879,1.417,1.417,0,0,0,.312.782h-3.3a2.382,2.382,0,0,0,.408-1.7V118.1h-.492a1.574,1.574,0,0,0-.768.276,2.592,2.592,0,0,0-.924.975l.7-2.816Z"/><path class="cls-12" d="M80.633,122.56l2.568-7.1h1.9l-2.568,7.1Z"/><path class="cls-12" d="M94.57,122.6a4.243,4.243,0,0,1-.827.072,3.589,3.589,0,0,1-1.513-.337,18.762,18.762,0,0,1-3.9-3.068v1.227a7.055,7.055,0,0,0,.084,1.083,1.8,1.8,0,0,0,.384.987H86.062a1.847,1.847,0,0,0,.384-.975,6.331,6.331,0,0,0,.1-1.083V117.47a5.172,5.172,0,0,0-.108-1.035,1.677,1.677,0,0,0-.372-.939h2.845a15.585,15.585,0,0,0,3.323,3.61v-1.564a6.266,6.266,0,0,0-.1-1.071,1.938,1.938,0,0,0-.371-.975h2.723a1.768,1.768,0,0,0-.384.963,6.159,6.159,0,0,0-.1,1.059v3.622Q94.006,122.475,94.57,122.6Z"/><path class="cls-12" d="M103.115,119.54a2.746,2.746,0,0,1-.684,1.8,3.76,3.76,0,0,1-1.608,1.095,4.685,4.685,0,0,1-3.24,0,3.754,3.754,0,0,1-1.608-1.095,2.734,2.734,0,0,1,.036-3.658,3.768,3.768,0,0,1,1.668-1.094,4.714,4.714,0,0,1,3.047,0,3.857,3.857,0,0,1,1.681,1.094A2.788,2.788,0,0,1,103.115,119.54Zm-3.936-1.83q-1.248,0-1.248,1.848a2.342,2.342,0,0,0,.264,1.183,1.061,1.061,0,0,0,.984.567,1.113,1.113,0,0,0,1.02-.555,2.3,2.3,0,0,0,.276-1.195Q100.475,117.71,99.179,117.71Z"/><path class="cls-12" d="M109.15,120.394q.925,1.744,1.9,1.744a.809.809,0,0,0,.576-.18q-.3.77-1.544.77a3.847,3.847,0,0,1-1.963-.5,2.315,2.315,0,0,1-1.185-1.589h-.36c.039.618.062.955.071,1.011a1.559,1.559,0,0,0,.325.9h-3.132a2.361,2.361,0,0,0,.4-1.649V118.18a2.439,2.439,0,0,0-.4-1.673h4.332a2.884,2.884,0,0,1,1.668.469,1.68,1.68,0,0,1,.78,1.469,1.881,1.881,0,0,1-.4,1.2A2.337,2.337,0,0,1,109.15,120.394Zm-1.578-1.239q.846,0,.846-.65a.459.459,0,0,0-.321-.422,1.324,1.324,0,0,0-.549-.119h-.978v1.191Z"/><path class="cls-12" d="M117.611,116.531l.708,2.792a3.111,3.111,0,0,0-1-.951,1.568,1.568,0,0,0-.757-.276h-.42v2.791a4.868,4.868,0,0,0,.084.879,1.432,1.432,0,0,0,.312.782h-3.3a2.383,2.383,0,0,0,.407-1.7V118.1h-.491a1.571,1.571,0,0,0-.768.276,2.577,2.577,0,0,0-.924.975l.7-2.816Z"/><path class="cls-12" d="M126,120.887a4.868,4.868,0,0,0,.084.879,1.568,1.568,0,0,0,.312.782H123.25a1.529,1.529,0,0,0,.322-.782,4.839,4.839,0,0,0,.087-.879v-.746h-1.933v.746a4.952,4.952,0,0,0,.082.879,1.433,1.433,0,0,0,.3.782h-3.132a1.41,1.41,0,0,0,.312-.782,4.406,4.406,0,0,0,.1-.879V118.18a4.388,4.388,0,0,0-.1-.878,1.414,1.414,0,0,0-.312-.783h3.132a1.437,1.437,0,0,0-.3.783,4.941,4.941,0,0,0-.082.878v.782h1.933v-.782a4.82,4.82,0,0,0-.087-.878,1.534,1.534,0,0,0-.322-.783h3.144a1.572,1.572,0,0,0-.312.783,4.858,4.858,0,0,0-.084.878Z"/><path class="cls-12" d="M53.819,133.666q0,.206,1.1.734a16.227,16.227,0,0,1,1.7.927,6.016,6.016,0,0,1,1.1.854,1.9,1.9,0,0,1,.492,1.275,1.677,1.677,0,0,1-.372,1.023,2.57,2.57,0,0,1-.84.7,4.951,4.951,0,0,1-2.316.469,4.68,4.68,0,0,1-2.34-.493,2.916,2.916,0,0,1-1.032-.987,4.684,4.684,0,0,1-.456-1.359,3.2,3.2,0,0,0,2.712,1.251q1.128,0,1.128-.493,0-.3-1.032-.806-1.536-.783-1.9-1.023-1.02-.7-1.02-1.432a1.7,1.7,0,0,1,.36-1.011,3.73,3.73,0,0,1,3.252-1.323,5.415,5.415,0,0,1,3.372.987v2.033a5.367,5.367,0,0,0-1.6-1.071,4.347,4.347,0,0,0-1.836-.529Q53.819,133.39,53.819,133.666Z"/><path class="cls-12" d="M64.127,133.859a2.559,2.559,0,0,0,.144.878l1,2.864q.5,1.421,1.188,1.7H62.687c.176-.079.264-.3.264-.649a2.048,2.048,0,0,0-.144-.674H60.659a2.029,2.029,0,0,0-.144.662q0,.53.264.661h-2.7q.684-.288,1.2-1.768l.972-2.768a2.8,2.8,0,0,0,.144-.914,1.562,1.562,0,0,0-.108-.614h3.96A1.507,1.507,0,0,0,64.127,133.859Zm-3.064,2.936H62.4l-.662-1.918Z"/><path class="cls-12" d="M73.871,139.369a3.684,3.684,0,0,1-.708.061,3.1,3.1,0,0,1-1.3-.29,16.24,16.24,0,0,1-3.336-2.634v1.047a2.552,2.552,0,0,0,.408,1.769H66.6a2.557,2.557,0,0,0,.408-1.757v-2.6a2.385,2.385,0,0,0-.408-1.685H69.04a13.242,13.242,0,0,0,2.851,3.092v-1.335a2.5,2.5,0,0,0-.42-1.757H73.8a2.494,2.494,0,0,0-.408,1.725v3.11Q73.391,139.26,73.871,139.369Z"/><path class="cls-12" d="M84.959,132.223q.444,1.78.78,3.164a2.088,2.088,0,0,0-2.208-1.347h-1.8v1.48h1.152a6.179,6.179,0,0,0,.792-.1,1.169,1.169,0,0,0,.7-.289v2.539a3.251,3.251,0,0,0-2.2-.481h-.444q0,1.684.48,2.1H78.467a1.664,1.664,0,0,0,.372-.926,5.922,5.922,0,0,0,.1-1.034V134.16a5.872,5.872,0,0,0-.1-1.023,1.7,1.7,0,0,0-.372-.914Z"/><path class="cls-12" d="M91.63,137.156q.925,1.744,1.9,1.744a.809.809,0,0,0,.576-.18q-.3.77-1.544.77a3.847,3.847,0,0,1-1.963-.5A2.315,2.315,0,0,1,89.41,137.4h-.36c.039.618.062.955.071,1.011a1.559,1.559,0,0,0,.325.9H86.314a2.361,2.361,0,0,0,.4-1.649v-2.719a2.439,2.439,0,0,0-.4-1.673h4.332a2.884,2.884,0,0,1,1.668.469,1.68,1.68,0,0,1,.78,1.469,1.881,1.881,0,0,1-.4,1.2A2.337,2.337,0,0,1,91.63,137.156Zm-1.578-1.239q.846,0,.846-.651a.458.458,0,0,0-.321-.421,1.325,1.325,0,0,0-.549-.12H89.05v1.192Z"/><path class="cls-12" d="M99.814,133.859a2.583,2.583,0,0,0,.144.878l1,2.864q.5,1.421,1.188,1.7H98.374c.176-.079.265-.3.265-.649a2.048,2.048,0,0,0-.144-.674H96.347a2,2,0,0,0-.144.662c0,.353.087.573.264.661h-2.7q.684-.288,1.2-1.768l.971-2.768a2.8,2.8,0,0,0,.144-.914,1.581,1.581,0,0,0-.107-.614h3.959A1.507,1.507,0,0,0,99.814,133.859Zm-3.063,2.936h1.335l-.661-1.918Z"/><path class="cls-12" d="M109.559,139.369a3.684,3.684,0,0,1-.708.061,3.1,3.1,0,0,1-1.3-.29,16.213,16.213,0,0,1-3.336-2.634v1.047a2.553,2.553,0,0,0,.407,1.769h-2.339a2.557,2.557,0,0,0,.408-1.757v-2.6a2.385,2.385,0,0,0-.408-1.685h2.441a13.22,13.22,0,0,0,2.851,3.092v-1.335a2.508,2.508,0,0,0-.42-1.757h2.328a2.489,2.489,0,0,0-.408,1.725v3.11Q109.079,139.26,109.559,139.369Z"/><path class="cls-12" d="M112.619,135.724a2.058,2.058,0,0,0,.981,1.745,3.337,3.337,0,0,0,1.963.613,2.343,2.343,0,0,0,2.012-1.107,3.769,3.769,0,0,1-.336.818,3.108,3.108,0,0,1-2.556,1.709c-.1.008-.241.012-.409.012a4.582,4.582,0,0,1-2.735-.806,2.852,2.852,0,0,1-1.26-2.443,2.936,2.936,0,0,1,1.139-2.406,4.068,4.068,0,0,1,2.593-.83,4.421,4.421,0,0,1,2.736.974q0,1.349-.024,2.611-1.473-2.056-3.063-2.057a.944.944,0,0,0-.772.325A1.272,1.272,0,0,0,112.619,135.724Z"/><path class="cls-12" d="M121.4,133.281a2.416,2.416,0,0,0-.4,1.673v2.683a2.416,2.416,0,0,0,.4,1.673h-3.3a1.476,1.476,0,0,0,.312-.782,4.4,4.4,0,0,0,.1-.879v-2.707a4.384,4.384,0,0,0-.1-.878,1.476,1.476,0,0,0-.312-.783Z"/><path class="cls-12" d="M124.738,134.485q0,.18.948.625a12.638,12.638,0,0,1,1.452.794,4.6,4.6,0,0,1,.936.734,1.582,1.582,0,0,1,.432,1.083,1.636,1.636,0,0,1-1.032,1.468,4.2,4.2,0,0,1-1.98.409,3.933,3.933,0,0,1-2-.433,2.41,2.41,0,0,1-.888-.83,3.734,3.734,0,0,1-.384-1.167,2.72,2.72,0,0,0,2.316,1.071q.96,0,.96-.421,0-.254-.876-.7-1.32-.663-1.62-.866-.876-.6-.876-1.228a1.511,1.511,0,0,1,.3-.866,3.2,3.2,0,0,1,2.784-1.131,4.592,4.592,0,0,1,2.88.842v1.745a4.7,4.7,0,0,0-1.356-.927,3.783,3.783,0,0,0-1.572-.445Q124.738,134.244,124.738,134.485Z"/><path class="cls-12" d="M131.326,135.724a2.057,2.057,0,0,0,.982,1.745,3.332,3.332,0,0,0,1.963.613,2.341,2.341,0,0,0,2.011-1.107,3.671,3.671,0,0,1-.336.818,3.106,3.106,0,0,1-2.556,1.709q-.156.012-.408.012a4.585,4.585,0,0,1-2.736-.806,2.852,2.852,0,0,1-1.26-2.443,2.934,2.934,0,0,1,1.14-2.406,4.067,4.067,0,0,1,2.592-.83,4.417,4.417,0,0,1,2.736.974q0,1.349-.024,2.611-1.471-2.056-3.063-2.057a.946.946,0,0,0-.772.325A1.272,1.272,0,0,0,131.326,135.724Z"/><path class="cls-12" d="M144.394,136.3a2.746,2.746,0,0,1-.684,1.8A3.754,3.754,0,0,1,142.1,139.2a4.685,4.685,0,0,1-3.24,0,3.754,3.754,0,0,1-1.608-1.095,2.734,2.734,0,0,1,.036-3.658,3.774,3.774,0,0,1,1.668-1.094,4.717,4.717,0,0,1,3.048,0,3.86,3.86,0,0,1,1.68,1.094A2.788,2.788,0,0,1,144.394,136.3Zm-3.936-1.83q-1.248,0-1.248,1.848a2.352,2.352,0,0,0,.264,1.183,1.061,1.061,0,0,0,.984.567,1.113,1.113,0,0,0,1.02-.555,2.3,2.3,0,0,0,.276-1.195Q141.754,134.472,140.458,134.472Z"/><path class="cls-12" d="M54.059,150.39q0,.2,1.1.734a16.234,16.234,0,0,1,1.7.926,6.016,6.016,0,0,1,1.1.854,1.9,1.9,0,0,1,.492,1.276,1.679,1.679,0,0,1-.372,1.023,2.582,2.582,0,0,1-.84.7,4.953,4.953,0,0,1-2.317.469,4.689,4.689,0,0,1-2.339-.493,2.925,2.925,0,0,1-1.032-.987,4.662,4.662,0,0,1-.456-1.36,3.2,3.2,0,0,0,2.712,1.251q1.128,0,1.128-.493,0-.3-1.033-.806-1.535-.781-1.9-1.023Q51,151.762,51,151.027a1.7,1.7,0,0,1,.36-1.01,3.728,3.728,0,0,1,3.252-1.324,5.415,5.415,0,0,1,3.372.987v2.033a5.367,5.367,0,0,0-1.6-1.071,4.347,4.347,0,0,0-1.836-.529Q54.059,150.113,54.059,150.39Z"/><path class="cls-12" d="M62.482,150a2.421,2.421,0,0,0-.4,1.673v2.683a2.419,2.419,0,0,0,.4,1.673h-3.3a1.48,1.48,0,0,0,.312-.782,4.4,4.4,0,0,0,.1-.878v-2.708a4.391,4.391,0,0,0-.1-.878,1.488,1.488,0,0,0-.312-.783Z"/><path class="cls-12" d="M67.4,154.445a2.211,2.211,0,0,0,1.177-.31,1.546,1.546,0,0,0,.7-.966,2.824,2.824,0,0,1-.084.366q-.012.036-.24.91l-.384,1.588H63.442a1.43,1.43,0,0,0,.312-.794,4.283,4.283,0,0,0,.1-.879v-2.791a4,4,0,0,0-.1-.842,1.437,1.437,0,0,0-.3-.747h3.4a2.45,2.45,0,0,0-.5,1.681v2.784Z"/><path class="cls-12" d="M73.15,150a2.421,2.421,0,0,0-.4,1.673v2.683a2.419,2.419,0,0,0,.4,1.673h-3.3a1.48,1.48,0,0,0,.312-.782,4.474,4.474,0,0,0,.1-.878v-2.708a4.466,4.466,0,0,0-.1-.878,1.488,1.488,0,0,0-.312-.783Z"/><path class="cls-12" d="M76.21,152.447a2.058,2.058,0,0,0,.982,1.745,3.334,3.334,0,0,0,1.963.613,2.34,2.34,0,0,0,2.011-1.107,3.7,3.7,0,0,1-.336.819,3.107,3.107,0,0,1-2.556,1.708c-.1.008-.24.013-.408.013a4.578,4.578,0,0,1-2.736-.807,2.849,2.849,0,0,1-1.259-2.442,2.935,2.935,0,0,1,1.139-2.407,4.067,4.067,0,0,1,2.592-.83,4.412,4.412,0,0,1,2.736.975q0,1.347-.024,2.611-1.471-2.058-3.063-2.058a.949.949,0,0,0-.772.325A1.277,1.277,0,0,0,76.21,152.447Z"/><path class="cls-12" d="M89.278,153.025a2.746,2.746,0,0,1-.684,1.8,3.765,3.765,0,0,1-1.608,1.1,4.682,4.682,0,0,1-3.239,0,3.762,3.762,0,0,1-1.609-1.1,2.736,2.736,0,0,1,.036-3.657,3.776,3.776,0,0,1,1.668-1.095,4.717,4.717,0,0,1,3.048,0,3.861,3.861,0,0,1,1.68,1.095A2.784,2.784,0,0,1,89.278,153.025ZM85.342,151.2q-1.248,0-1.248,1.847a2.352,2.352,0,0,0,.264,1.183,1.062,1.062,0,0,0,.984.568,1.112,1.112,0,0,0,1.02-.556,2.293,2.293,0,0,0,.276-1.195Q86.638,151.2,85.342,151.2Z"/><path class="cls-12" d="M97.27,156.093a3.771,3.771,0,0,1-.708.06,3.114,3.114,0,0,1-1.3-.289,16.258,16.258,0,0,1-3.336-2.635v1.047a2.552,2.552,0,0,0,.408,1.769H90a2.556,2.556,0,0,0,.408-1.757v-2.6A2.386,2.386,0,0,0,90,150h2.441A13.253,13.253,0,0,0,95.29,153.1v-1.335A2.5,2.5,0,0,0,94.87,150H97.2a2.5,2.5,0,0,0-.408,1.725v3.11Q96.79,155.985,97.27,156.093Z"/><path class="cls-12" d="M107.95,148.958h3.192a3.359,3.359,0,0,0-1.416,2.069L108.6,154.24a3.413,3.413,0,0,0-.168,1.083,1.754,1.754,0,0,0,.132.71H103.93a1.787,1.787,0,0,0,.132-.722,3.12,3.12,0,0,0-.168-1.035l-1.164-3.405a5.164,5.164,0,0,0-.516-1.083,2.018,2.018,0,0,0-.828-.83h4.392q-.3.156-.3.77a1.9,1.9,0,0,0,.084.578l1.3,3.779,1.3-3.767a1.776,1.776,0,0,0,.094-.577Q108.25,149.126,107.95,148.958Z"/><path class="cls-12" d="M115.462,150.582a2.565,2.565,0,0,0,.144.879l1,2.863q.5,1.42,1.188,1.7h-3.768q.264-.12.264-.65a2.048,2.048,0,0,0-.144-.674h-2.148a2.029,2.029,0,0,0-.144.662q0,.529.264.662h-2.7q.684-.289,1.2-1.769l.972-2.767a2.813,2.813,0,0,0,.144-.915,1.565,1.565,0,0,0-.108-.614h3.96A1.51,1.51,0,0,0,115.462,150.582Zm-3.064,2.936h1.336l-.662-1.918Z"/><path class="cls-12" d="M122.014,154.445a2.21,2.21,0,0,0,1.176-.31,1.548,1.548,0,0,0,.7-.966,3.031,3.031,0,0,1-.084.366q-.014.036-.241.91l-.383,1.588h-5.124a1.445,1.445,0,0,0,.312-.794,4.28,4.28,0,0,0,.1-.879v-2.791a3.992,3.992,0,0,0-.1-.842,1.436,1.436,0,0,0-.3-.747h3.4a2.45,2.45,0,0,0-.505,1.681v2.784Z"/><path class="cls-12" d="M128.422,154.445a2.205,2.205,0,0,0,1.176-.31,1.544,1.544,0,0,0,.7-.966,2.824,2.824,0,0,1-.084.366q-.012.036-.24.91l-.384,1.588h-5.124a1.437,1.437,0,0,0,.312-.794,4.28,4.28,0,0,0,.1-.879v-2.791a3.992,3.992,0,0,0-.1-.842,1.436,1.436,0,0,0-.3-.747h3.4a2.455,2.455,0,0,0-.5,1.681v2.784Z"/><path class="cls-12" d="M135.358,154.469a2.246,2.246,0,0,0,1.3-.421,3.04,3.04,0,0,0,.924-1.011q-.012,0-.372,1.432l-.36,1.552H130.87a1.5,1.5,0,0,0,.324-.806,4.868,4.868,0,0,0,.084-.879v-2.659a5.117,5.117,0,0,0-.084-.9,1.568,1.568,0,0,0-.324-.806h5.772v2.069q-.216-.506-1.212-.505h-1.788v.842q1.176,0,1.38-.337v1.841q-.24-.41-1.26-.409h-.12v1Z"/><path class="cls-12" d="M143.026,149.969h2.628q-.552.06-1.548,1.66l-1.08,1.709v.974a5.128,5.128,0,0,0,.084.9,1.5,1.5,0,0,0,.324.806h-3.312a1.406,1.406,0,0,0,.324-.782,5.312,5.312,0,0,0,.084-.891v-1.01l-1.356-2a5.7,5.7,0,0,0-.636-.782,1.874,1.874,0,0,0-.768-.589h3.816a.431.431,0,0,0-.192.4,5.456,5.456,0,0,0,.912,1.636l.372-.553q-.036.048-.12.168l.12-.168a2.479,2.479,0,0,0,.54-1.083A.431.431,0,0,0,143.026,149.969Zm-.348,1.48-.12.168Q142.606,151.545,142.678,151.449Z"/></g></svg>