<?xml version="1.0" encoding="utf-8"?>
<!-- Generator: Adobe Illustrator 24.2.3, SVG Export Plug-In . SVG Version: 6.00 Build 0)  -->
<svg version="1.1"
	 id="svg3971" xmlns:cc="http://creativecommons.org/ns#" xmlns:dc="http://purl.org/dc/elements/1.1/" xmlns:inkscape="http://www.inkscape.org/namespaces/inkscape" xmlns:rdf="http://www.w3.org/1999/02/22-rdf-syntax-ns#" xmlns:sodipodi="http://sodipodi.sourceforge.net/DTD/sodipodi-0.dtd" xmlns:svg="http://www.w3.org/2000/svg"
	 xmlns="http://www.w3.org/2000/svg" xmlns:xlink="http://www.w3.org/1999/xlink" x="0px" y="0px" viewBox="0 0 272.325 313.389"
	 style="enable-background:new 0 0 272.325 313.389;" xml:space="preserve">
<style type="text/css">
	.st0{fill:#EAC998;}
</style>
<sodipodi:namedview  bordercolor="#666666" borderopacity="1.0" id="base" inkscape:current-layer="layer1" inkscape:cx="-377.40885" inkscape:cy="156.69473" inkscape:document-units="px" inkscape:pageopacity="0.0" inkscape:pageshadow="2" inkscape:window-height="950" inkscape:window-maximized="1" inkscape:window-width="1280" inkscape:window-x="0" inkscape:window-y="25" inkscape:zoom="0.35" pagecolor="#ffffff" showgrid="false">
	</sodipodi:namedview>
<g id="layer1" transform="translate(-246.69456,-375.66745)" inkscape:groupmode="layer" inkscape:label="Layer 1">
	<path id="path3922" class="st0" d="M385.784,689.056c0.57-0.019,1.226-0.228,1.585-0.732l80.673-96.527
		c1.342-1.681,1.433-2.056-0.366-2.073l-161.59,0.427c-2.221,0.181-2.231,0.07-0.793,1.951l79.271,96.527
		C384.729,688.884,385.213,689.07,385.784,689.056L385.784,689.056z M370.296,680.458L297.55,591.98
		c-0.974-1.182-1.212-1.249-2.927-0.427l-38.355,17.562c-2.512,1.134-2.164,1.366-0.488,2.5L370.296,680.458z M404.26,677.226
		c0.034,0.072,0.625-0.37,1.951-1.281l105.613-69.514l-33.05-15c-1.724-0.568-2.239-0.599-3.354,0.793l-69.697,83.234
		C404.741,676.595,404.228,677.154,404.26,677.226L404.26,677.226z M370.845,641.981c-4.668,0-8.406-1.61-11.159-4.817
		c-2.752-3.192-4.305-7.752-4.695-13.659c-0.389-5.891,0.598-10.451,2.927-13.659c2.33-3.192,5.82-4.756,10.488-4.756
		c4.685,0,8.407,1.565,11.159,4.756c2.753,3.208,4.306,7.768,4.695,13.659c0.391,5.907-0.597,10.467-2.927,13.659
		C379.004,640.372,375.529,641.981,370.845,641.981z M401.516,641.616c-4.256,0-7.447-0.931-9.513-2.805
		c-2.082-1.874-2.826-4.455-2.317-7.805c0.294-1.937,1.061-3.744,2.317-5.427c1.253-1.667,3.683-3.958,7.317-6.768l8.598-6.647
		h-15.61l0.976-6.708h25.854l-1.037,6.708l-14.696,11.464c-1.318,1.048-2.341,2.048-3.049,3.049c-0.708,1-1.117,2.091-1.28,3.171
		c-0.253,1.667,0.064,3.008,1.036,4.025c0.958,1.016,2.411,1.524,4.269,1.525c1.429,0,3.024-0.357,4.817-0.976
		c1.791-0.604,3.733-1.476,5.854-2.683l-1.159,7.805c-2.168,0.683-4.272,1.175-6.342,1.524
		C405.481,641.432,403.454,641.615,401.516,641.616L401.516,641.616z M370.418,635.701c1.969,0,3.304-0.918,4.025-2.744
		c0.722-1.81,0.965-4.944,0.671-9.391c-0.297-4.494-0.927-7.61-1.89-9.452c-0.963-1.842-2.421-2.805-4.39-2.805
		c-1.953,0-3.305,0.963-4.024,2.805c-0.72,1.842-0.968,4.958-0.671,9.452c0.294,4.446,0.929,7.58,1.89,9.391
		C366.974,634.783,368.449,635.701,370.418,635.701z M458.104,630.762c-0.845,0-1.439-0.212-1.707-0.671
		c-0.53-0.913,0.14-2.694,1.951-5.427c1.817-2.743,3.903-5.075,6.281-6.951c2.384-1.871,5.022-3.28,7.866-4.208
		c1.845-0.602,3.118-0.76,3.841-0.427c0.73,0.338,0.899,1.182,0.488,2.439c1.374-1.453,2.81-2.714,4.329-3.72
		c1.52-1.005,3.068-1.786,4.695-2.317c2.422-0.79,3.88-0.732,4.268,0.183c0.389,0.915-0.308,2.671-2.012,5.244
		c-1.692,2.554-3.583,4.721-5.732,6.464c-2.136,1.739-4.456,2.987-6.891,3.781c-1.627,0.531-2.762,0.67-3.415,0.366
		c-0.658-0.295-0.811-1.024-0.488-2.134c-1.487,1.608-3.059,2.963-4.756,4.085c-1.691,1.128-3.46,2.02-5.305,2.622
		C460.096,630.555,458.949,630.76,458.104,630.762L458.104,630.762z M295.355,629.298c-1.452-1.215-2.793-2.471-4.024-3.659
		c-1.241-1.188-2.368-2.334-3.354-3.476c-2.166-2.509-3.318-4.461-3.415-5.854c-0.105-1.403,0.838-2.121,2.805-2.134
		c1.137,0,2.466,0.331,3.963,0.915c1.488,0.583,3.852,1.778,7.134,3.659l7.805,4.451l-7.988-9.208l3.964-0.06l13.171,15.244
		l-3.964,0.06l-13.354-7.622c-1.205-0.679-2.24-1.201-3.11-1.524c-0.87-0.324-1.622-0.492-2.256-0.488
		c-0.979,0-1.441,0.368-1.464,1.036c-0.031,0.66,0.396,1.526,1.342,2.622c0.728,0.843,1.699,1.806,2.927,2.805
		c1.219,0.999,2.696,2.033,4.39,3.171L295.355,629.298L295.355,629.298z M463.53,625.213c0.453-0.043,1.064-0.137,1.768-0.366
		c1.422-0.464,2.682-1.111,3.781-1.89c1.112-0.784,2.015-1.675,2.683-2.683c0.674-1.018,0.821-1.712,0.427-2.012
		c-0.394-0.3-1.334-0.216-2.744,0.244c-1.409,0.46-2.663,1.097-3.781,1.89c-1.105,0.789-2.009,1.726-2.683,2.744
		c-0.668,1.008-0.814,1.656-0.427,1.951C462.755,625.235,463.078,625.254,463.53,625.213L463.53,625.213z M476.763,620.578
		c0.362-0.027,0.832-0.119,1.402-0.305c1.14-0.372,2.141-0.927,3.049-1.585c0.921-0.662,1.695-1.408,2.256-2.256
		c0.574-0.867,0.73-1.437,0.427-1.707c-0.309-0.261-1.068-0.185-2.195,0.183c-1.14,0.372-2.128,0.862-3.049,1.525
		c-0.927,0.672-1.682,1.45-2.256,2.317c-0.562,0.848-0.736,1.385-0.427,1.646C476.124,620.526,476.4,620.606,476.763,620.578
		L476.763,620.578z M250.658,604.968c0.328-0.023,0.846-0.212,1.646-0.549l39.391-17.988c1.399-0.635,1.311-1.491,0.793-2.561
		l-45.794-116.162l3.293,135.309C250.089,604.496,250.11,605.007,250.658,604.968L250.658,604.968z M514.812,601.37l4.207-131.65
		l-38.782,113.906c-0.573,1.682-0.559,1.767,0.61,2.317L514.812,601.37L514.812,601.37z M303.952,584.297l165.249-0.427
		c2.362,0.035,2.264,0.033,1.098-1.89l-83.905-141.529c-1.417-2.16-1.265-2.092-2.744,0.121l-80.612,141.773
		C302.332,583.471,301.827,584.258,303.952,584.297L303.952,584.297z M297.367,580.577c0.152-0.065,0.319-0.638,0.793-1.524
		l81.161-142.809c0.885-1.508,1.096-2.048-1.037-1.707L249.439,452.28c-2.043,0.467-1.981,1.197-1.281,3.232l48.599,123.479
		C297.079,580.174,297.214,580.641,297.367,580.577L297.367,580.577z M475.543,579.236c0.158-0.113,0.3-0.715,0.61-1.585
		l41.16-121.162c0.701-2.574,0.78-3.541-1.829-4.025L392.37,434.658c-2.328-0.35-2.03,0.823-1.463,1.951l83.783,141.346
		C475.217,579.023,475.386,579.349,475.543,579.236L475.543,579.236z M251.512,577.65l-0.244-5.061l4.146-2.683l-0.976-18.354
		l-4.146,4.086l-0.305-5l4.208-4.025l4.451-2.866l1.22,23.354l1.951-1.22l-0.06-1.464c0.913,0.127,1.803,0.07,2.683-0.121
		c0.887-0.21,1.724-0.566,2.561-1.098c1.244-0.79,2.181-1.714,2.805-2.805c0.632-1.096,0.918-2.281,0.854-3.537
		c-0.066-1.294-0.442-2.031-1.159-2.256c-0.709-0.244-1.724,0.019-3.049,0.854l-1.89,1.22l-0.244-4.756l1.951-1.22
		c1.178-0.749,2.074-1.623,2.622-2.561c0.547-0.95,0.792-1.991,0.732-3.171c-0.056-1.091-0.384-1.772-0.976-2.012
		c-0.592-0.24-1.415-0.041-2.439,0.61c-0.756,0.48-1.498,1.133-2.256,1.89c-0.758,0.757-1.519,1.617-2.256,2.622l-0.244-5.366
		c0.905-0.995,1.783-1.841,2.683-2.622c0.9-0.781,1.805-1.454,2.683-2.012c2.365-1.503,4.133-2.059,5.366-1.585
		c1.241,0.456,1.948,1.894,2.073,4.329c0.085,1.662-0.104,3.213-0.61,4.634c-0.507,1.409-1.303,2.713-2.378,3.842
		c1.253-0.285,2.23-0.035,2.927,0.793c0.705,0.81,1.061,2.135,1.159,4.025c0.144,2.816-0.401,5.395-1.707,7.744
		c-1.307,2.337-3.326,4.353-5.976,6.037c-0.935,0.594-1.85,1.105-2.805,1.463c-0.195,0.076-0.412,0.117-0.61,0.183l-0.06,0.06
		l-12.683,8.049L251.512,577.65z M511.337,567.772c-0.622,0.041-1.274-0.162-2.012-0.61c-1.628-0.986-2.82-2.836-3.537-5.549
		c-0.045-0.172-0.082-0.372-0.121-0.549l-0.244,3.232l-8.781-5.305l0.366-4.451l2.866,1.707l1.281-15.976l-2.988-0.61l0.305-4.33
		l3.049,0.549l3.049,1.89l-1.647,20.366l2.5,1.464c-0.375-2.336-0.497-5.026-0.244-8.11c0.337-4.098,1.145-6.953,2.378-8.659
		c1.239-1.714,2.755-2.016,4.573-0.915c0.576,0.349,1.118,0.775,1.646,1.281c0.528,0.506,1.083,1.092,1.586,1.768l-0.366,4.573
		c-0.49-0.82-1.012-1.495-1.463-2.012c-0.45-0.528-0.894-0.948-1.342-1.22c-0.962-0.583-1.753-0.494-2.378,0.244
		c-0.624,0.727-1.02,2.119-1.281,4.146c0.414-0.319,0.828-0.483,1.281-0.488c0.454-0.019,0.954,0.119,1.463,0.427
		c1.281,0.776,2.205,2.127,2.866,4.085c0.667,1.962,0.93,4.182,0.732,6.586c-0.218,2.658-0.819,4.536-1.829,5.61
		c-0.505,0.531-1.086,0.812-1.707,0.854L511.337,567.772z M510.422,563.321c0.227-0.051,0.44-0.213,0.61-0.488
		c0.346-0.558,0.551-1.537,0.671-2.988c0.119-1.451,0.103-2.644-0.121-3.537c-0.22-0.9-0.649-1.545-1.22-1.89
		c-0.565-0.342-0.996-0.193-1.341,0.366c-0.339,0.55-0.551,1.537-0.671,2.988c-0.119,1.451-0.098,2.636,0.121,3.537
		c0.226,0.893,0.593,1.487,1.158,1.829C509.915,563.311,510.194,563.372,510.422,563.321L510.422,563.321z M413.59,554.296h-8.659
		v-6.464h-15.793v-7.866l14.269-21.22h10.183v22.44h5.061v6.647h-5.061V554.296z M383.589,554.296h-24.818v-6.342h8.049v-22.989
		l-8.293,1.707v-6.22l8.293-1.707h8.72v29.208h8.049L383.589,554.296L383.589,554.296z M404.931,541.186v-14.939l-10.061,14.939
		H404.931z M466.213,514.295l-5.732-7.805l2.683-1.768c-0.414-0.094-0.797-0.164-1.22-0.305c-3.367-1.136-6.466-3.647-9.269-7.439
		c-3.089-4.18-4.335-8.13-3.72-11.952c0.638-3.816,3.115-7.133,7.378-9.939c4.369-2.877,8.766-3.836,13.232-2.805
		c4.489,1.038,8.44,3.929,11.891,8.598c1.093,1.479,2.086,2.934,2.927,4.451c0.841,1.518,1.565,3.082,2.195,4.695l-4.878,3.232
		c-0.477-1.714-1.063-3.264-1.707-4.634c-0.632-1.378-1.346-2.631-2.195-3.781c-1.826-2.471-3.823-4.002-5.976-4.634
		c-2.141-0.64-4.379-0.378-6.768,0.854c1.279,0.567,2.436,1.337,3.537,2.256c1.113,0.912,2.144,2.047,3.11,3.354
		c2.431,3.289,3.633,6.46,3.537,9.512c-0.086,3.067-1.401,5.447-3.964,7.134c-0.709,0.466-1.453,0.818-2.195,1.098l3.963,5.366
		L466.213,514.295L466.213,514.295z M310.599,503.014l-6.646-5.122l-10.61-24.879l5.305-7.866l19.147,14.635l2.622-3.903
		l5.671,4.329l-2.683,3.964l5.549,4.207l-4.573,6.708l-5.488-4.268L310.599,503.014L310.599,503.014z M461.64,496.855
		c1.033-0.068,2.133-0.517,3.293-1.281c1.547-1.018,2.396-2.116,2.622-3.354c0.249-1.231-0.137-2.62-1.219-4.086
		c-1.072-1.451-2.277-2.281-3.598-2.5c-1.298-0.213-2.722,0.201-4.268,1.22c-1.547,1.018-2.435,2.122-2.683,3.354
		c-0.226,1.238,0.148,2.635,1.219,4.086c1.083,1.465,2.299,2.287,3.598,2.5C460.934,496.849,461.296,496.878,461.64,496.855
		L461.64,496.855z M307.977,494.233l5.244-7.744l-12.683-9.756L307.977,494.233z M507.556,445.39L386.76,376.852
		c-1.564-0.948-1.93-0.603-1.707,1.037l2.561,48.05c0.07,1.551,0.28,2.182,1.89,2.439L507.556,445.39L507.556,445.39z
		 M257.792,445.269l122.626-16.952c1.618-0.238,1.326-1.033,1.342-2.195l-2.622-48.904c-0.135-1.484-0.091-2.016-1.89-1.098
		L257.792,445.269z M334.563,424.171l-8.964-9.939l-7.012,4.146l-1.951-2.195l18.415-10.915l2.988-1.768l18.415-10.915l1.951,2.134
		l-7.012,4.146l7.134,7.805l6.585-4.817l1.951,2.134l-6.586,4.756l-7.5,4.451l-9.025-9.939l-3.964,2.378l-2.988,1.768l-3.964,2.378
		l7.073,7.805l6.647-4.817l1.89,2.134l-6.585,4.817L334.563,424.171L334.563,424.171z M415.175,422.708
		c-2.373-0.108-4.515-0.928-6.525-2.439c-2.231-1.678-3.176-3.488-2.805-5.488c0.371-2,2.027-4,4.939-5.976
		c1.732-1.175,3.522-1.978,5.305-2.5l-2.073-1.585l4.695-3.171l4.146,3.11l-1.524,1.037c2.597,0.17,4.943,1.02,7.073,2.622
		c0.802,0.603,1.53,1.19,2.134,1.829c0.612,0.634,1.133,1.313,1.585,2.012l-3.354,2.256c-0.355-0.765-0.756-1.409-1.219-2.012
		c-0.472-0.598-1.02-1.175-1.646-1.646c-1.314-0.988-2.766-1.494-4.268-1.524c-1.51-0.025-3.045,0.469-4.695,1.402
		c0.924,0.116,1.771,0.305,2.561,0.61c0.791,0.305,1.508,0.702,2.195,1.22c1.75,1.316,2.621,2.789,2.622,4.329
		c-0.019,1.54-0.919,2.889-2.683,4.085C419.689,422.201,417.54,422.808,415.175,422.708L415.175,422.708z M414.139,419.049
		c0.924-0.068,1.875-0.445,2.927-1.159c1.06-0.719,1.685-1.418,1.829-2.073c0.137-0.65-0.204-1.249-0.976-1.829
		c-0.772-0.58-1.584-0.856-2.5-0.793c-0.923,0.07-1.928,0.501-2.988,1.22c-1.052,0.713-1.624,1.357-1.768,2.012
		c-0.144,0.655,0.142,1.31,0.915,1.89C412.349,418.898,413.215,419.118,414.139,419.049L414.139,419.049z"/>
</g>
</svg>
