<?xml version="1.0" standalone="no"?>
<!DOCTYPE svg PUBLIC "-//W3C//DTD SVG 20010904//EN"
 "http://www.w3.org/TR/2001/REC-SVG-20010904/DTD/svg10.dtd">
<svg version="1.0" xmlns="http://www.w3.org/2000/svg"
 width="307.000000pt" height="307.000000pt" viewBox="0 0 307.000000 307.000000"
 preserveAspectRatio="xMidYMid meet">
<metadata>
Created by potrace 1.11, written by Peter Selinger 2001-2013
</metadata>
<g transform="translate(0.000000,307.000000) scale(0.100000,-0.100000)"
fill="#000000" stroke="none">
<path d="M0 3046 c0 -14 5 -28 10 -31 6 -3 10 -11 10 -16 0 -6 -4 -7 -10 -4
-5 3 -10 2 -10 -4 0 -5 6 -11 13 -14 10 -3 10 -9 0 -26 -16 -25 -17 -51 -3
-51 6 0 10 -10 10 -22 0 -19 -2 -20 -10 -8 -8 12 -10 11 -10 -7 0 -12 6 -24
13 -26 10 -4 10 -6 0 -6 -16 -1 -19 -395 -3 -435 6 -17 6 -26 0 -26 -6 0 -10
-56 -10 -140 0 -139 0 -140 23 -140 20 0 22 -4 22 -62 l0 -63 48 -1 c66 -2 73
-14 9 -14 -43 0 -52 -3 -52 -17 0 -15 -2 -16 -10 -3 -5 8 -10 45 -10 83 0 52
-3 67 -15 67 -13 0 -15 -90 -15 -701 0 -554 3 -699 13 -693 9 5 9 4 -1 -7 -15
-17 -18 -579 -2 -579 6 0 10 5 10 12 0 6 3 8 7 4 5 -4 1 -13 -7 -19 -8 -7 -16
-30 -17 -55 l-2 -42 1535 0 1534 0 0 276 c0 271 0 276 -20 271 -11 -3 -18 -1
-14 4 3 5 12 9 20 9 11 0 14 20 14 100 l0 99 -54 -37 c-35 -24 -51 -41 -45
-47 7 -6 13 -5 19 5 6 9 10 10 10 3 0 -6 -5 -15 -10 -18 -6 -4 -7 -11 -4 -17
8 -13 -39 1 -47 14 -4 6 -9 6 -13 -1 -4 -6 -14 -11 -23 -11 -9 0 25 27 75 61
l92 61 0 1149 0 1149 -575 0 -575 0 5 -127 c3 -71 10 -201 17 -291 6 -89 9
-164 7 -166 -2 -2 -23 5 -46 15 l-43 18 0 276 0 275 -930 0 -930 0 0 -24z
m170 -6 c0 -5 -6 -11 -12 -13 -10 -4 -10 -8 1 -15 9 -7 14 -35 14 -98 1 -91
-9 -143 -23 -128 -9 10 -12 64 -11 191 1 69 3 81 16 77 8 -4 15 -10 15 -14z
m419 -66 c17 -4 31 -10 31 -15 0 -5 13 -30 30 -57 22 -37 30 -62 32 -108 1
-32 -1 -65 -5 -71 -4 -7 -3 -21 2 -32 8 -14 8 -21 -2 -24 -7 -3 -4 -6 6 -6 17
-1 17 -2 2 -18 -16 -16 -16 -17 1 -30 17 -13 17 -13 0 -13 -16 0 -16 -2 -5
-16 10 -13 10 -17 -2 -25 -10 -6 -6 -9 16 -10 29 -1 30 -1 5 -9 -18 -6 -5 -9
50 -11 l75 -3 -80 -6 c-44 -3 -73 -7 -63 -8 14 -2 15 -6 5 -32 -10 -25 -9 -33
3 -40 13 -8 12 -10 -3 -10 -10 0 -16 -4 -13 -9 4 -5 1 -11 -5 -13 -12 -4 -20
-58 -8 -58 5 0 9 -7 9 -15 0 -8 -5 -15 -12 -15 -17 0 -88 -81 -81 -93 3 -6 1
-7 -5 -3 -7 4 -12 3 -12 -2 0 -5 -11 -15 -25 -22 -14 -7 -25 -20 -25 -27 0
-21 -151 61 -211 114 -35 32 -49 52 -46 65 3 11 0 18 -9 18 -18 0 -18 8 1 27
14 14 14 17 -1 34 -16 18 -16 19 2 20 10 1 3 5 -16 9 l-35 7 30 3 30 2 -30 8
-30 8 30 1 c29 1 30 3 29 44 -2 54 -6 68 -23 86 -11 13 -11 16 5 22 18 7 18 8
-1 9 -13 1 -15 3 -6 7 11 5 11 7 0 14 -11 7 -9 9 6 9 15 0 17 2 6 9 -9 6 -10
11 -2 15 17 11 13 26 -6 26 -15 0 -16 2 -3 10 16 10 22 60 7 60 -5 0 11 21 37
48 25 26 51 61 56 78 9 28 17 33 63 41 62 12 153 15 196 7z m2006 0 c11 -3 35
-30 53 -61 26 -45 33 -68 34 -117 1 -34 -1 -68 -6 -77 -4 -10 -1 -23 9 -33 15
-15 15 -16 -2 -17 -10 0 -13 -3 -6 -6 9 -3 10 -10 3 -24 -11 -19 -13 -18 55
-32 11 -3 0 -5 -24 -6 -38 -1 -42 -3 -30 -17 10 -13 10 -17 -2 -25 -11 -7 -8
-9 11 -10 23 0 23 -1 5 -9 -14 -6 5 -9 60 -11 l80 -3 -85 -6 c-47 -3 -77 -7
-67 -8 10 -1 16 -6 12 -11 -3 -6 14 -12 37 -14 l43 -4 -48 -1 -47 -2 4 -35 c3
-25 1 -35 -9 -35 -19 0 -24 -20 -12 -54 8 -24 7 -30 -9 -39 -26 -14 -86 -79
-79 -85 3 -3 -11 -16 -30 -29 -19 -13 -35 -28 -35 -34 0 -11 -101 38 -112 55
-4 6 -8 7 -8 3 0 -11 -80 45 -114 81 -16 18 -26 37 -23 46 3 8 -1 17 -9 20
-14 5 -13 8 1 23 14 14 15 18 4 22 -21 9 -22 31 -2 32 10 1 2 5 -17 9 l-35 7
35 3 35 3 -35 7 -35 7 35 2 c23 1 31 4 22 10 -11 7 -11 11 2 24 12 12 13 17 3
21 -9 5 -9 7 1 12 10 5 10 10 -4 25 -9 10 -14 19 -10 19 4 0 0 8 -10 17 -15
16 -15 17 2 24 11 4 13 8 6 8 -7 1 -11 5 -8 10 4 5 0 12 -6 14 -8 3 -6 6 5 6
9 1 17 5 17 11 0 5 -8 14 -17 20 -17 11 -17 11 0 6 11 -3 17 0 17 9 0 9 -6 12
-17 9 -17 -5 -17 -5 -1 5 12 8 16 21 13 42 -3 24 3 37 29 63 19 17 43 51 55
73 17 35 27 43 58 48 21 4 43 8 48 10 17 6 139 5 160 -1z m-2325 -53 c0 -18
-18 -21 -30 -6 -10 13 -9 15 9 15 11 0 21 -4 21 -9z m1240 -228 c0 -5 -4 -14
-9 -21 -7 -11 -9 -11 -14 1 -3 8 -3 18 0 21 9 8 23 7 23 -1z m34 1 c9 -3 16
-12 16 -19 0 -25 -15 -24 -27 1 -12 26 -12 27 11 18z m46 -8 c0 -3 -4 -8 -10
-11 -5 -3 -10 -1 -10 4 0 6 5 11 10 11 6 0 10 -2 10 -4z m-833 -12 c-3 -3 -12
-4 -19 -1 -8 3 -5 6 6 6 11 1 17 -2 13 -5z m208 -14 c3 -5 18 -11 33 -11 17
-1 21 -3 10 -6 -14 -3 -18 -15 -18 -46 -1 -37 -2 -40 -14 -25 -10 13 -15 15
-24 6 -9 -9 -12 -9 -12 0 0 7 -4 12 -10 12 -5 0 -7 -8 -3 -17 6 -17 5 -17 -13
-2 -10 8 -31 14 -46 13 -22 -2 -28 1 -28 17 0 10 7 19 15 19 8 0 15 -4 15 -10
0 -17 14 -11 28 11 11 18 11 23 -5 35 -16 12 -14 13 24 14 23 0 45 -4 48 -10z
m-212 -57 c-7 -2 -19 -2 -25 0 -7 3 -2 5 12 5 14 0 19 -2 13 -5z m274 -35 c-3
-8 -6 -5 -6 6 -1 11 2 17 5 13 3 -3 4 -12 1 -19z m743 -41 c108 -31 172 -57
240 -97 259 -152 432 -391 484 -671 35 -182 29 -306 -20 -477 -62 -213 -191
-396 -374 -532 -248 -184 -588 -239 -885 -143 -339 109 -576 360 -672 709 -56
204 -29 488 63 665 9 18 10 30 4 34 -6 3 -13 -1 -16 -10 -5 -13 -9 -14 -15 -4
-11 19 -2 28 24 24 18 -4 27 4 47 41 39 74 133 187 208 251 134 112 311 198
470 228 118 22 333 14 442 -18z m-1537 -4 c-7 -2 -19 -2 -25 0 -7 3 -2 5 12 5
14 0 19 -2 13 -5z m2000 0 c-7 -2 -19 -2 -25 0 -7 3 -2 5 12 5 14 0 19 -2 13
-5z m-1440 -40 c-18 -2 -48 -2 -65 0 -18 2 -4 4 32 4 36 0 50 -2 33 -4z m-17
-210 c-10 -10 -19 5 -10 18 6 11 8 11 12 0 2 -7 1 -15 -2 -18z m-26 -3 c0 -5
-5 -10 -11 -10 -5 0 -7 5 -4 10 3 6 8 10 11 10 2 0 4 -4 4 -10z m1570 -25 c5
-3 9 -21 9 -38 -1 -25 -3 -27 -6 -9 -3 13 -12 26 -21 30 -9 3 -23 12 -31 19
-11 12 -9 13 13 9 14 -2 30 -7 36 -11z m-1672 -85 c-3 -37 -18 -59 -18 -25 0
8 -5 15 -11 15 -5 0 -7 5 -4 10 3 6 -2 10 -12 10 -14 1 -13 4 7 15 37 21 41
19 38 -25z m1754 25 c0 -5 -5 -11 -10 -13 -5 -1 -9 4 -9 13 0 9 4 14 9 13 5
-2 10 -8 10 -13z m-1995 -17 c-3 -8 -6 -5 -6 6 -1 11 2 17 5 13 3 -3 4 -12 1
-19z m1963 -18 c0 -5 -4 -10 -10 -10 -5 0 -10 5 -10 10 0 6 5 10 10 10 6 0 10
-4 10 -10z m-2160 -36 c0 -8 -4 -12 -10 -9 -5 3 -10 10 -10 16 0 5 5 9 10 9 6
0 10 -7 10 -16z m180 -86 c0 -21 -5 -28 -20 -28 -14 0 -20 7 -20 23 0 18 2 19
11 7 8 -11 9 -6 7 24 -4 33 -3 36 9 20 7 -10 13 -30 13 -46z m-260 7 c0 -25
-3 -45 -7 -45 -5 0 -8 20 -8 45 0 25 3 45 8 45 4 0 7 -20 7 -45z m390 10 c0
-14 -4 -25 -10 -25 -5 0 -10 11 -10 25 0 14 5 25 10 25 6 0 10 -11 10 -25z
m-60 -69 c0 -19 25 -27 39 -13 8 8 11 8 11 -1 0 -12 -15 -17 -35 -12 -5 2 -19
2 -30 2 -15 -1 -16 1 -6 7 7 5 10 14 7 20 -4 6 -2 11 3 11 6 0 11 -6 11 -14z
m97 -8 c-3 -8 -6 -5 -6 6 -1 11 2 17 5 13 3 -3 4 -12 1 -19z m-252 -9 c4 -6
13 -8 21 -5 8 3 14 1 14 -4 0 -6 -6 -10 -12 -10 -9 0 -8 -4 2 -10 13 -8 12
-10 -2 -10 -10 0 -18 6 -18 14 0 8 -6 16 -14 19 -15 6 -15 -20 -1 -43 3 -6 1
-10 -4 -10 -6 0 -11 6 -11 13 0 8 -4 7 -11 -3 -8 -12 -9 -9 -5 12 7 32 -6 43
-33 28 -11 -5 -28 -7 -38 -3 -16 6 -15 8 7 14 39 11 98 10 105 -2z m105 -20
c0 -11 -4 -17 -10 -14 -5 3 -10 15 -10 26 0 11 5 17 10 14 6 -3 10 -15 10 -26z
m-220 -16 c0 -5 -23 -9 -51 -11 -34 -2 -49 0 -44 7 7 12 95 15 95 4z m284 -8
c-4 -8 -8 -15 -10 -15 -2 0 -4 7 -4 15 0 8 4 15 10 15 5 0 7 -7 4 -15z m-96
-12 c-10 -2 -26 -2 -35 0 -10 3 -2 5 17 5 19 0 27 -2 18 -5z m2207 -194 c11
-2 26 0 33 4 8 5 12 2 12 -8 0 -9 -16 -23 -36 -31 -37 -15 -61 -11 -34 7 10 6
11 12 5 17 -5 4 -21 21 -35 37 l-25 30 30 -27 c17 -14 39 -28 50 -29z m42 -81
c-3 -7 -5 -2 -5 12 0 14 2 19 5 13 2 -7 2 -19 0 -25z m23 -102 c-5 -4 -34 -19
-64 -31 l-56 -23 0 28 c0 22 6 30 28 38 15 5 36 19 47 29 20 20 20 20 36 -6 9
-14 13 -30 9 -35z m-2071 -622 c22 -5 33 -14 37 -30 3 -13 10 -24 15 -24 5 0
9 -6 9 -14 0 -8 7 -21 15 -30 17 -16 25 -128 11 -157 -4 -10 -1 -23 9 -33 15
-15 15 -16 -2 -17 -10 0 -13 -3 -6 -6 9 -3 10 -10 2 -24 -7 -14 -7 -20 3 -23
39 -12 40 -15 13 -16 -16 -1 -24 -4 -17 -7 15 -6 16 -33 1 -33 -6 0 -4 -7 4
-14 9 -9 40 -16 78 -19 l64 -3 -80 -3 c-44 -1 -72 -5 -63 -9 13 -5 15 -11 8
-22 -19 -29 -11 -50 18 -51 26 -2 26 -2 2 -6 -38 -8 -61 -39 -49 -70 8 -21 6
-30 -12 -50 -13 -12 -29 -23 -36 -23 -8 0 -11 -5 -8 -10 3 -6 1 -10 -5 -10 -6
0 -9 -4 -6 -9 3 -5 -1 -12 -10 -15 -9 -4 -14 -9 -11 -13 4 -3 -12 -19 -35 -35
l-41 -30 -74 38 c-85 43 -173 117 -173 144 0 11 -5 22 -11 26 -8 4 -7 9 2 15
10 6 10 13 1 33 -6 14 -8 26 -3 26 4 0 8 7 8 15 0 9 -10 16 -26 16 -22 1 -20
3 9 9 19 4 26 8 16 9 -20 1 -20 1 0 16 16 12 17 16 4 24 -12 9 -12 11 3 17 16
6 16 8 2 24 -8 9 -12 20 -9 23 4 4 -1 9 -10 13 -15 6 -15 7 1 20 17 13 17 13
0 14 -17 0 -17 1 -1 17 15 16 15 17 -2 24 -18 7 -18 8 1 9 l20 1 -20 9 -20 9
20 1 c19 2 19 3 1 7 -15 4 -16 7 -5 14 18 11 19 59 2 59 -7 0 5 16 28 37 22
20 51 56 65 79 21 35 32 45 62 50 20 3 42 7 47 9 18 6 122 5 154 -1z m2007 0
c23 -5 35 -18 59 -66 25 -50 30 -72 31 -137 0 -42 4 -82 8 -89 4 -7 3 -12 -1
-12 -18 0 -6 -54 13 -61 17 -7 17 -8 -3 -8 -24 -1 -30 -15 -12 -27 8 -4 7 -9
-2 -15 -9 -5 12 -9 56 -11 l70 -2 -65 -5 -65 -5 75 -6 75 -6 -80 -3 c-47 -1
-72 -5 -61 -10 18 -7 18 -8 1 -25 -15 -15 -16 -19 -4 -27 8 -5 10 -9 4 -10 -5
0 1 -5 15 -9 l25 -8 -28 -1 c-16 -1 -26 -5 -23 -10 4 -5 1 -11 -5 -13 -16 -5
-19 -51 -5 -60 7 -5 0 -17 -19 -33 -56 -46 -78 -72 -71 -83 3 -5 -11 -16 -30
-27 -19 -10 -34 -24 -34 -32 0 -22 -151 60 -209 114 -29 26 -53 56 -55 66 -1
10 -9 23 -17 28 -11 7 -11 9 4 9 9 0 17 7 17 15 0 8 -4 15 -10 15 -14 0 -12
27 3 34 8 3 6 9 -7 20 -19 16 -19 16 5 16 17 0 20 3 10 9 -8 5 -10 14 -5 22
17 27 13 58 -8 65 -16 5 -17 8 -7 14 10 7 10 11 0 24 -11 13 -11 16 0 16 11 0
11 2 -1 10 -13 9 -13 10 0 10 13 0 13 1 0 10 -13 9 -13 10 0 10 13 0 13 1 0
10 -13 9 -13 10 0 10 13 0 13 1 0 10 -13 9 -13 10 0 11 10 0 8 3 -5 9 -16 7
-17 9 -3 9 23 1 32 19 19 35 -6 7 -8 16 -4 19 3 4 -2 7 -13 7 -18 1 -18 1 1
12 35 19 76 62 96 100 10 20 23 39 29 43 31 19 179 31 236 19z m-2527 -237 c0
-9 -2 -8 -6 1 -2 6 -10 9 -15 6 -7 -4 -8 -2 -4 5 9 13 26 5 25 -12z m3001 9
c0 -3 -4 -8 -10 -11 -5 -3 -10 -1 -10 4 0 6 5 11 10 11 6 0 10 -2 10 -4z
m-174 -38 c4 -7 4 -10 -1 -6 -4 4 -17 1 -29 -7 -11 -8 -25 -15 -31 -15 -8 0
44 40 52 40 1 0 5 -6 9 -12z m-2139 -34 c-3 -3 -12 -4 -19 -1 -8 3 -5 6 6 6
11 1 17 -2 13 -5z m2000 0 c-3 -3 -12 -4 -19 -1 -8 3 -5 6 6 6 11 1 17 -2 13
-5z m123 -24 c-9 -16 -40 -19 -40 -3 0 3 6 3 14 0 8 -3 17 1 20 9 3 8 8 14 11
14 3 0 1 -9 -5 -20z m127 -22 c-3 -8 -6 -5 -6 6 -1 11 2 17 5 13 3 -3 4 -12 1
-19z m-244 -25 c-7 -2 -19 -2 -25 0 -7 3 -2 5 12 5 14 0 19 -2 13 -5z m-1990
-20 c-13 -2 -35 -2 -50 0 -16 2 -5 4 22 4 28 0 40 -2 28 -4z m2020 0 c-18 -2
-48 -2 -65 0 -18 2 -4 4 32 4 36 0 50 -2 33 -4z m-2020 -40 c-13 -2 -35 -2
-50 0 -16 2 -5 4 22 4 28 0 40 -2 28 -4z m1470 0 c-7 -2 -19 -2 -25 0 -7 3 -2
5 12 5 14 0 19 -2 13 -5z m754 -9 c-3 -3 -12 -4 -19 -1 -8 3 -5 6 6 6 11 1 17
-2 13 -5z m-2754 -11 c-7 -2 -21 -2 -30 0 -10 3 -4 5 12 5 17 0 24 -2 18 -5z
m2000 0 c-7 -2 -19 -2 -25 0 -7 3 -2 5 12 5 14 0 19 -2 13 -5z m715 -48 c4 -4
-3 -5 -15 -2 -13 3 -26 1 -29 -5 -4 -6 -10 -5 -15 3 -4 7 -11 10 -16 6 -10
-10 18 -28 35 -22 6 2 12 1 12 -3 0 -5 -6 -14 -12 -22 -7 -8 -4 -7 8 3 31 26
37 20 12 -13 -22 -31 -53 -39 -61 -17 -3 7 -6 6 -6 -5 -1 -18 9 -27 36 -33 10
-2 36 -11 58 -20 37 -14 38 -15 10 -13 -16 1 -36 6 -42 11 -8 6 -13 5 -13 -1
0 -7 -7 -9 -17 -5 -17 7 -17 5 0 -21 10 -15 16 -35 14 -44 -4 -16 -9 -7 -52
93 -18 43 -18 91 1 109 16 17 77 17 92 1z m-2731 -11 c-3 -3 -12 -4 -19 -1 -8
3 -5 6 6 6 11 1 17 -2 13 -5z m2016 -1 c-7 -2 -19 -2 -25 0 -7 3 -2 5 12 5 14
0 19 -2 13 -5z m-107 -21 c-10 -16 -56 -21 -56 -6 0 7 12 14 28 16 32 4 36 3
28 -10z m-1259 -49 c-3 -10 -5 -2 -5 17 0 19 2 27 5 18 2 -10 2 -26 0 -35z
m1116 21 c-12 -31 -96 -47 -107 -19 -4 10 1 15 17 16 30 1 70 8 76 14 10 11
20 4 14 -11z m-163 -26 c0 -19 -2 -20 -10 -8 -13 19 -13 30 0 30 6 0 10 -10
10 -22z m-75 2 c-3 -5 -10 -10 -16 -10 -5 0 -9 5 -9 10 0 6 7 10 16 10 8 0 12
-4 9 -10z m1302 -72 c-3 -8 -6 -5 -6 6 -1 11 2 17 5 13 3 -3 4 -12 1 -19z
m-779 -56 c-11 -2 -23 0 -27 5 -10 16 -44 24 -51 13 -7 -11 -186 -18 -196 -7
-8 7 128 38 179 40 26 1 47 5 47 10 0 4 16 -7 35 -25 31 -30 33 -33 13 -36z
m-315 1 c-13 -2 -35 -2 -50 0 -16 2 -5 4 22 4 28 0 40 -2 28 -4z m984 -85 c-3
-8 -6 -5 -6 6 -1 11 2 17 5 13 3 -3 4 -12 1 -19z m-1063 -39 c-6 -10 -73 16
-93 36 -10 9 4 7 42 -7 31 -11 54 -25 51 -29z m-1677 -1 c-3 -7 -5 -2 -5 12 0
14 2 19 5 13 2 -7 2 -19 0 -25z m1723 -2 c0 -11 -19 -15 -25 -6 -3 5 1 10 9
10 9 0 16 -2 16 -4z"/>
<path d="M380 2711 c0 -5 9 -11 20 -14 18 -5 20 -14 20 -105 0 -92 -2 -101
-22 -116 -22 -15 -16 -16 94 -14 92 1 115 4 111 15 -3 7 0 13 6 13 21 0 12 61
-12 82 l-23 21 22 22 c29 29 22 71 -17 90 -31 17 -199 21 -199 6z m164 -27
c19 -48 -4 -84 -53 -84 -18 0 -21 6 -21 43 0 24 3 47 7 50 13 13 61 7 67 -9z
m2 -121 c17 -22 18 -55 2 -71 -7 -7 -27 -12 -45 -12 -33 0 -33 0 -33 50 0 49
0 50 31 50 19 0 37 -7 45 -17z"/>
<path d="M2470 2729 c-11 -8 -12 -12 -2 -16 6 -2 12 -10 12 -16 0 -26 -64
-173 -82 -189 -11 -10 -17 -21 -14 -26 4 -7 46 -8 85 -3 2 1 -4 9 -13 20 -12
13 -15 27 -10 45 5 23 11 26 49 26 39 0 44 -3 54 -31 9 -27 8 -34 -7 -45 -19
-15 -15 -17 50 -18 32 -1 48 3 48 12 0 6 -5 12 -10 12 -6 0 -15 12 -21 28 -69
187 -81 212 -103 212 -11 0 -28 -5 -36 -11z m33 -137 c-34 -5 -37 1 -22 43
l14 37 16 -39 c16 -38 16 -38 -8 -41z"/>
<path d="M956 2621 c-4 -7 -5 -15 -2 -18 9 -9 19 4 14 18 -4 11 -6 11 -12 0z"/>
<path d="M920 2610 c0 -5 5 -10 10 -10 6 0 10 5 10 10 0 6 -4 10 -10 10 -5 0
-10 -4 -10 -10z"/>
<path d="M1415 2543 c-438 -52 -782 -363 -870 -787 -23 -114 -21 -303 5 -412
75 -319 302 -586 592 -698 126 -48 204 -66 328 -72 462 -26 880 285 1005 746
10 40 19 118 22 205 4 117 1 156 -16 239 -61 290 -256 542 -521 676 -166 84
-376 124 -545 103z m329 -43 c360 -95 614 -348 713 -710 14 -51 18 -102 17
-235 0 -156 -2 -177 -27 -260 -30 -95 -94 -234 -130 -278 -12 -15 -40 -49 -61
-77 -21 -27 -43 -47 -49 -43 -6 3 -7 1 -4 -4 4 -6 -10 -25 -31 -42 -20 -17
-44 -37 -52 -44 -220 -188 -567 -262 -853 -183 -126 35 -337 140 -337 168 0 4
-6 8 -14 8 -26 0 -190 184 -236 265 -62 111 -118 282 -130 404 -29 277 69 558
264 759 153 159 354 262 567 292 97 14 272 4 363 -20z"/>
<path d="M1487 2370 c-29 -104 -97 -157 -217 -172 -42 -5 -24 -21 45 -38 47
-12 76 -26 101 -51 37 -34 84 -120 84 -151 0 -20 19 -24 24 -5 39 139 94 195
209 212 56 9 69 22 30 30 -139 28 -191 67 -221 167 -11 34 -24 64 -29 65 -5 2
-17 -24 -26 -57z m90 -147 c20 -18 46 -33 57 -33 15 0 8 -7 -22 -23 -40 -21
-92 -82 -92 -108 0 -6 -15 11 -32 37 -18 27 -49 58 -69 68 l-36 20 41 20 c31
16 47 33 66 73 l25 52 12 -37 c7 -20 29 -52 50 -69z"/>
<path d="M852 2063 c-71 -82 -122 -206 -122 -295 0 -54 10 -60 34 -23 10 14
31 35 49 45 29 18 52 20 248 20 245 0 287 -8 363 -66 l48 -36 -39 -40 c-21
-21 -47 -41 -59 -44 -12 -3 -52 4 -90 16 -111 34 -222 26 -239 -17 -8 -24 1
-27 27 -9 31 22 64 20 126 -9 74 -34 88 -50 72 -80 -7 -13 -81 -92 -166 -176
-150 -148 -154 -152 -189 -146 -19 3 -48 15 -64 26 -36 26 -38 26 -45 -2 -16
-66 34 -211 105 -303 39 -51 114 -112 125 -101 3 3 1 20 -3 39 -5 18 -6 49 -3
70 6 35 102 193 112 183 2 -3 5 1 5 8 0 7 35 66 79 132 43 66 81 125 84 130
34 69 129 187 143 178 6 -4 7 -1 2 7 -5 8 -2 17 7 24 8 6 23 23 33 39 l18 28
22 -33 c13 -18 20 -37 17 -42 -3 -5 0 -6 6 -3 15 10 73 -66 188 -243 56 -85
131 -201 168 -258 37 -57 71 -114 76 -128 13 -33 13 -90 0 -115 -24 -44 46 -2
104 62 67 74 118 185 124 269 5 73 -6 94 -37 66 -31 -28 -78 -40 -110 -27 -28
12 -299 288 -315 322 -12 25 4 42 67 74 58 28 103 32 134 10 32 -22 38 0 7 24
-40 32 -97 32 -221 0 l-82 -21 -33 20 c-19 12 -43 31 -54 43 -19 21 -19 21 19
54 78 68 87 70 352 73 l240 3 37 -28 c21 -15 40 -36 44 -46 3 -10 11 -16 17
-14 17 6 14 92 -6 159 -19 61 -103 195 -136 216 -20 11 -21 10 -21 -26 0 -60
-53 -99 -172 -127 -75 -18 -140 -19 -155 -4 -13 13 -158 -77 -210 -130 -17
-18 -36 -30 -42 -27 -6 4 -9 1 -5 -7 3 -8 -2 -19 -10 -26 -13 -11 -22 -5 -58
34 -24 26 -82 74 -131 107 -80 54 -89 58 -107 45 -17 -12 -33 -12 -106 0 -134
21 -214 69 -214 129 0 50 -14 49 -58 -3z"/>
<path d="M1401 1242 c-63 -26 -118 -54 -122 -62 -17 -31 -79 -201 -79 -215 0
-8 24 -64 54 -123 49 -98 58 -110 98 -129 69 -34 168 -73 185 -73 9 0 54 25
100 56 47 30 91 58 99 61 8 3 14 9 14 14 0 4 21 38 46 74 l46 66 -37 134 -38
135 -66 31 c-36 17 -89 42 -117 55 -28 13 -55 24 -60 23 -5 0 -60 -21 -123
-47z m88 -9 c-35 -63 -37 -64 -93 -57 -28 4 -54 10 -59 13 -4 4 32 24 80 43
49 20 89 37 90 37 2 1 -7 -16 -18 -36z m121 -68 c38 -49 68 -91 66 -92 -2 -3
-65 24 -173 73 -18 8 -33 17 -33 19 0 12 56 95 63 92 4 -1 39 -43 77 -92z
m103 22 l37 -17 -16 -37 c-9 -21 -18 -44 -21 -51 -4 -9 -11 -6 -24 9 -10 12
-16 26 -12 32 3 5 1 7 -4 4 -6 -4 -22 8 -35 26 -13 17 -37 50 -54 71 l-29 40
60 -31 c33 -16 77 -37 98 -46z m-352 -23 c30 -3 57 -9 61 -13 4 -4 -30 -44
-75 -89 l-83 -82 15 99 c8 55 18 98 21 96 4 -3 32 -7 61 -11z m112 -186 c7
-49 12 -88 10 -88 -1 0 -44 14 -95 31 -51 17 -99 33 -107 35 -9 3 19 36 75 93
l89 88 7 -36 c4 -20 13 -75 21 -123z m144 100 c72 -31 72 -31 51 -49 -11 -10
-25 -16 -30 -13 -4 3 -7 2 -6 -3 3 -7 -39 -48 -108 -106 l-22 -18 -11 83 c-6
46 -14 102 -18 126 l-5 43 38 -16 c22 -8 71 -30 111 -47z m163 -10 c12 -40 24
-82 27 -93 4 -15 -3 -12 -32 15 -53 51 -57 62 -37 109 9 22 18 41 19 41 1 0
12 -33 23 -72z m-526 -47 c-4 -35 -11 -51 -21 -51 -9 0 -13 6 -10 14 3 8 11
32 18 55 16 54 22 46 13 -18z m529 -84 c-3 -5 -1 -7 4 -4 6 4 16 0 23 -8 9
-11 0 -28 -51 -87 -34 -40 -64 -75 -67 -78 -2 -3 -2 24 2 60 3 36 9 99 12 140
l7 74 38 -43 c21 -24 36 -48 32 -54z m-97 -9 c-4 -51 -8 -100 -8 -108 0 -8 -2
-27 -4 -42 l-5 -27 -55 45 c-30 24 -66 52 -80 60 -19 13 -22 19 -13 31 7 8 18
12 25 9 8 -3 13 -1 11 4 -2 9 120 120 132 120 2 0 1 -42 -3 -92z m-416 -30
c10 -27 17 -48 16 -48 -2 0 -17 23 -35 51 -23 38 -27 50 -15 47 9 -2 24 -24
34 -50z m117 7 c51 -16 93 -32 93 -35 0 -8 -111 -130 -119 -130 -4 0 -19 28
-33 63 -15 34 -34 79 -43 100 -12 29 -13 38 -3 35 7 -2 55 -16 105 -33z m155
-85 c-1 -6 2 -9 6 -6 5 3 31 -11 57 -32 l48 -37 -29 -6 c-16 -4 -78 -7 -138
-8 -108 -1 -109 -1 -91 19 10 11 22 17 28 13 5 -3 7 -2 4 3 -3 6 12 29 34 53
38 41 41 42 62 28 12 -9 21 -21 19 -27z m-212 -75 c0 -11 -14 7 -31 40 -7 13
-3 12 10 -5 11 -14 21 -29 21 -35z m294 -40 c-10 -8 -23 -15 -28 -15 -6 0 -20
-9 -32 -20 l-21 -21 -58 26 c-32 14 -65 26 -74 27 -23 2 103 14 173 16 55 2
58 1 40 -13z"/>
<path d="M380 661 c0 -5 9 -11 20 -14 18 -5 20 -14 20 -110 0 -100 -1 -105
-22 -110 -12 -4 -19 -9 -15 -13 9 -9 128 -11 133 -2 3 5 -2 8 -10 8 -20 0 -36
31 -36 69 0 28 3 31 34 31 48 0 94 19 101 41 4 10 13 26 21 34 14 13 14 15 0
15 -8 0 -17 9 -21 19 -3 11 -20 24 -37 30 -37 13 -188 15 -188 2z m162 -28
c19 -17 25 -63 7 -63 -5 0 -7 -4 -4 -10 7 -12 -39 -24 -60 -16 -15 6 -22 86
-8 99 12 12 46 7 65 -10z"/>
<path d="M2443 668 c-25 -12 -45 -60 -36 -86 11 -32 36 -52 72 -58 73 -13 102
-52 64 -86 -28 -24 -76 -6 -99 37 -10 19 -22 35 -26 35 -5 0 -8 -22 -8 -48 0
-48 0 -49 33 -49 17 0 44 -3 59 -5 36 -7 85 26 93 61 13 58 -21 98 -91 107
-33 4 -81 23 -60 24 5 0 3 6 -3 14 -10 12 -7 18 14 32 32 21 69 8 87 -31 16
-35 34 -25 30 16 -2 19 -5 35 -5 35 -11 9 -107 11 -124 2z"/>
<path d="M2945 670 c3 -5 11 -10 16 -10 6 0 7 5 4 10 -3 6 -11 10 -16 10 -6 0
-7 -4 -4 -10z"/>
</g>
</svg>
